<?xml version="1.0" encoding="UTF-8" standalone="no"?>
<svg xmlns="http://www.w3.org/2000/svg"
     xmlns:xlink="http://www.w3.org/1999/xlink"
     width="1600px" height="900px" viewBox="0 0 1600 900">
<title>gl2ps_renderer figure</title>
<desc>
Creator: GL2PS 1.4.0, (C) 1999-2017 C. Geuzaine
For: Octave
CreationDate: Fri Feb 14 14:03:41 2020
</desc>
<defs>
</defs>
<polygon fill="#ffffff" points="0,0 1600,0 1600,900 0,900"/>
<g>
<polygon fill="#ffffff" points="0,900 1600,900 1600,0 0,0" shape-rendering="crispEdges"/>
<clipPath id="cp001600900">
  <polygon points="0,900 1600,900 1600,0 0,0"/>
</clipPath>
<g clip-path="url(#cp001600900)">
<polygon fill="#ffffff" shape-rendering="crispEdges" points="208,381.228 1448,381.228 208,83.4776"/>
<polygon fill="#ffffff" shape-rendering="crispEdges" points="1448,381.228 1448,83.4776 208,83.4776"/>
<polyline fill="none" stroke="#262626" stroke-width="0.5" stroke-linecap="butt" stroke-linejoin="miter" points="208,381.228 208,368.838"/>
<polyline fill="none" stroke="#262626" stroke-width="0.5" stroke-linecap="butt" stroke-linejoin="miter" points="385.143,381.228 385.143,368.838"/>
<polyline fill="none" stroke="#262626" stroke-width="0.5" stroke-linecap="butt" stroke-linejoin="miter" points="562.286,381.228 562.286,368.838"/>
<polyline fill="none" stroke="#262626" stroke-width="0.5" stroke-linecap="butt" stroke-linejoin="miter" points="739.429,381.228 739.429,368.838"/>
<polyline fill="none" stroke="#262626" stroke-width="0.5" stroke-linecap="butt" stroke-linejoin="miter" points="916.571,381.228 916.571,368.838"/>
<polyline fill="none" stroke="#262626" stroke-width="0.5" stroke-linecap="butt" stroke-linejoin="miter" points="1093.71,381.228 1093.71,368.838"/>
<polyline fill="none" stroke="#262626" stroke-width="0.5" stroke-linecap="butt" stroke-linejoin="miter" points="1270.86,381.228 1270.86,368.838"/>
<polyline fill="none" stroke="#262626" stroke-width="0.5" stroke-linecap="butt" stroke-linejoin="miter" points="1448,381.228 1448,368.838"/>
<text fill="#262626" x="208" y="386.223" font-size="10" text-anchor="middle" dy="10" font-family="Helvetica">0</text>
<text fill="#262626" x="385.143" y="386.223" font-size="10" text-anchor="middle" dy="10" font-family="Helvetica">0.2</text>
<text fill="#262626" x="562.286" y="386.223" font-size="10" text-anchor="middle" dy="10" font-family="Helvetica">0.4</text>
<text fill="#262626" x="739.429" y="386.223" font-size="10" text-anchor="middle" dy="10" font-family="Helvetica">0.6</text>
<text fill="#262626" x="916.571" y="386.223" font-size="10" text-anchor="middle" dy="10" font-family="Helvetica">0.8</text>
<text fill="#262626" x="1093.71" y="386.223" font-size="10" text-anchor="middle" dy="10" font-family="Helvetica">1</text>
<text fill="#262626" x="1270.86" y="386.223" font-size="10" text-anchor="middle" dy="10" font-family="Helvetica">1.2</text>
<text fill="#262626" x="1448" y="386.223" font-size="10" text-anchor="middle" dy="10" font-family="Helvetica">1.4</text>
<polyline fill="none" stroke="#262626" stroke-width="0.5" stroke-linecap="butt" stroke-linejoin="miter" points="208,381.228 220.4,381.228"/>
<polyline fill="none" stroke="#262626" stroke-width="0.5" stroke-linecap="butt" stroke-linejoin="miter" points="208,321.678 220.4,321.678"/>
<polyline fill="none" stroke="#262626" stroke-width="0.5" stroke-linecap="butt" stroke-linejoin="miter" points="208,262.128 220.4,262.128"/>
<polyline fill="none" stroke="#262626" stroke-width="0.5" stroke-linecap="butt" stroke-linejoin="miter" points="208,202.578 220.4,202.578"/>
<polyline fill="none" stroke="#262626" stroke-width="0.5" stroke-linecap="butt" stroke-linejoin="miter" points="208,143.028 220.4,143.028"/>
<polyline fill="none" stroke="#262626" stroke-width="0.5" stroke-linecap="butt" stroke-linejoin="miter" points="208,83.4776 220.4,83.4776"/>
<text fill="#262626" x="203" y="381.228" font-size="10" text-anchor="end" dy="5" font-family="Helvetica">0</text>
<text fill="#262626" x="203" y="321.678" font-size="10" text-anchor="end" dy="5" font-family="Helvetica">200</text>
<text fill="#262626" x="203" y="262.128" font-size="10" text-anchor="end" dy="5" font-family="Helvetica">400</text>
<text fill="#262626" x="203" y="202.578" font-size="10" text-anchor="end" dy="5" font-family="Helvetica">600</text>
<text fill="#262626" x="203" y="143.028" font-size="10" text-anchor="end" dy="5" font-family="Helvetica">800</text>
<text fill="#262626" x="203" y="83.4777" font-size="10" text-anchor="end" dy="5" font-family="Helvetica">1000</text>
<polyline fill="none" stroke="#262626" stroke-width="0.5" stroke-linecap="butt" stroke-linejoin="miter" stroke-dasharray="16,0" points="208,381.228 1448,381.228"/>
<polyline fill="none" stroke="#262626" stroke-width="0.5" stroke-linecap="butt" stroke-linejoin="miter" stroke-dasharray="16,0" points="208,381.228 208,83.4776"/>
<text fill="#262626" x="828" y="399.223" font-size="11" text-anchor="middle" dy="11" font-family="Helvetica">time [ms]</text>
<text fill="#262626" x="175" y="232.353" font-size="11" transform="rotate(-90, 175, 232.353)" text-anchor="middle" dy="0" font-family="Helvetica">amplitude</text>
<polyline fill="none" stroke="#0071bc" stroke-width="0.5" stroke-linecap="butt" stroke-linejoin="miter" points="208,343.413 208.887,352.941 209.773,349.071 210.66,341.329 211.546,352.346 212.433,342.52 213.32,345.498 214.206,349.368 215.093,338.054 215.979,334.779 216.866,335.076 217.753,347.582 218.639,341.627 219.526,343.711 220.412,330.015 221.299,333.885 222.186,338.054 223.072,334.183 223.959,330.61 224.845,334.779 225.732,329.121 226.619,337.756 227.505,323.464 228.392,330.61 229.278,326.144 230.165,328.824 231.052,323.464 231.938,321.975 232.825,320.487 233.711,329.121 234.598,330.312 235.485,318.105 236.371,325.251 237.258,328.824 238.144,321.678 239.031,314.532 239.918,326.442 240.804,318.105 241.691,323.762 242.577,310.363 243.464,308.874 244.351,318.105 245.237,310.661 246.124,316.318 247.01,308.577 247.897,318.402 248.784,318.402 249.67,307.683 250.557,304.408 251.443,316.318 252.33,302.919 253.217,313.638 254.103,313.043 254.99,310.363 255.876,303.515 256.763,306.492 257.65,305.897 258.536,300.24 259.423,309.768 260.309,301.728 261.196,301.728 262.083,302.026 262.969,295.476 263.856,299.644 264.742,298.155 265.629,304.706 266.516,293.987 267.402,292.2 268.289,298.453 269.175,293.094 270.062,296.964 270.949,303.217 271.835,303.217 272.722,294.582 273.608,300.537 274.495,300.537 275.382,294.88 276.268,293.987 277.155,285.352 278.041,291.009 278.928,294.88 279.815,285.352 280.701,282.97 281.588,290.414 282.474,293.094 283.361,287.139 284.248,291.009 285.134,288.032 286.021,289.818 286.907,281.481 287.794,281.481 288.681,279.993 289.567,287.139 290.454,285.054 291.34,288.33 292.227,284.161 293.114,282.077 294,279.397 294.887,277.015 295.773,277.015 296.66,277.313 297.547,283.566 298.433,275.824 299.32,285.352 300.206,270.762 301.093,284.161 301.98,278.802 302.866,278.206 303.753,274.038 304.639,277.015 305.526,275.229 306.413,276.42 307.299,272.847 308.186,271.06 309.072,277.313 309.959,268.678 310.846,273.74 311.732,266.296 312.619,277.015 313.505,274.038 314.392,267.189 315.279,267.487 316.165,266.594 317.052,273.442 317.938,274.931 318.825,264.212 319.712,264.212 320.598,261.532 321.485,265.105 322.371,263.616 323.258,265.701 324.145,266.892 325.031,259.448 325.918,268.38 326.804,268.083 327.691,260.937 328.578,270.167 329.464,260.639 330.351,269.274 331.237,264.807 332.124,254.088 333.011,259.746 333.897,263.616 334.784,260.639 335.67,266.892 336.557,262.723 337.444,256.47 338.33,251.706 339.217,251.111 340.103,260.937 340.99,251.706 341.877,260.937 342.763,263.616 343.65,263.319 344.536,257.066 345.423,252.004 346.31,251.111 347.196,253.195 348.083,259.746 348.969,253.195 349.856,258.555 350.743,249.92 351.629,249.027 352.516,248.729 353.402,256.173 354.289,252.897 355.176,245.454 356.062,257.959 356.949,251.706 357.835,256.768 358.722,246.942 359.609,249.324 360.495,242.178 361.382,249.92 362.268,246.347 363.155,252.897 364.042,252.302 364.928,247.538 365.815,249.324 366.701,243.072 367.588,239.499 368.475,249.92 369.361,251.111 370.248,247.538 371.134,237.712 372.021,251.409 372.908,243.369 373.794,246.645 374.681,239.201 375.567,246.942 376.454,247.836 377.341,245.156 378.227,239.201 379.114,247.24 380,247.24 380.887,247.836 381.774,237.414 382.66,237.712 383.547,236.223 384.433,242.178 385.32,245.454 386.207,241.285 387.093,240.69 387.98,231.459 388.866,240.987 389.753,234.735 390.64,238.01 391.526,236.521 392.413,243.667 393.299,232.055 394.186,242.774 395.073,240.094 395.959,233.246 396.846,235.032 397.732,234.735 398.619,230.864 399.506,235.926 400.392,229.673 401.279,240.094 402.165,226.398 403.052,226.398 403.939,227.589 404.825,235.032 405.712,224.611 406.598,228.184 407.485,233.246 408.372,225.802 409.258,232.65 410.145,230.864 411.031,231.162 411.918,229.077 412.805,229.673 413.691,224.611 414.578,235.33 415.464,234.437 416.351,225.802 417.238,221.038 418.124,224.611 419.011,233.841 419.897,222.527 420.784,225.802 421.671,231.162 422.557,219.847 423.444,226.993 424.33,231.162 425.217,222.229 426.104,224.611 426.99,226.993 427.877,223.718 428.763,226.695 429.65,221.038 430.537,227.291 431.423,219.847 432.31,224.313 433.196,219.549 434.083,223.718 434.97,223.718 435.856,226.398 436.743,216.572 437.629,227.886 438.516,216.274 439.403,214.785 440.289,219.847 441.176,218.656 442.062,218.061 442.949,225.207 443.836,224.611 444.722,211.808 445.609,214.19 446.495,223.122 447.382,223.42 448.269,224.909 449.155,218.954 450.042,217.167 450.928,216.87 451.815,214.19 452.702,219.549 453.588,212.106 454.475,210.617 455.361,207.937 456.248,214.19 457.135,210.319 458.021,210.021 458.908,209.128 459.794,220.145 460.681,208.533 461.568,218.358 462.454,216.274 463.341,216.274 464.227,218.656 465.114,216.274 466.001,216.87 466.887,209.724 467.774,215.976 468.66,218.061 469.547,215.679 470.434,215.679 471.32,215.381 472.207,216.87 473.093,207.639 473.98,208.83 474.867,212.999 475.753,208.533 476.64,204.066 477.526,204.364 478.413,201.684 479.3,208.83 480.186,214.785 481.073,203.471 481.959,210.319 482.846,213.892 483.733,205.555 484.619,207.639 485.506,199.898 486.392,199.005 487.279,207.937 488.166,205.853 489.052,202.28 489.939,202.28 490.825,199.005 491.712,198.707 492.599,212.106 493.485,206.448 494.372,206.448 495.258,200.196 496.145,210.915 497.032,196.027 497.918,198.111 498.805,208.83 499.691,204.066 500.578,209.128 501.465,203.173 502.351,202.28 503.238,194.538 504.124,207.937 505.011,199.898 505.898,207.639 506.784,197.516 507.671,199.302 508.557,197.516 509.444,194.538 510.331,207.044 511.217,199.302 512.104,201.089 512.99,192.156 513.877,192.752 514.764,206.151 515.65,204.066 516.537,201.089 517.423,197.516 518.31,202.578 519.197,203.471 520.083,192.454 520.97,203.769 521.856,200.196 522.743,197.516 523.63,200.791 524.516,189.774 525.403,189.179 526.289,200.196 527.176,193.943 528.063,197.218 528.949,199.6 529.836,191.263 530.722,196.92 531.609,192.156 532.496,188.881 533.382,199.302 534.269,191.859 535.155,198.707 536.042,194.836 536.929,185.904 537.815,198.707 538.702,186.201 539.588,189.179 540.475,198.707 541.362,185.606 542.248,196.027 543.135,184.713 544.021,190.37 544.908,187.988 545.795,194.538 546.681,188.583 547.568,193.645 548.454,184.713 549.341,195.729 550.228,189.774 551.114,189.179 552.001,191.263 552.887,191.263 553.774,189.179 554.661,185.606 555.547,193.05 556.434,186.797 557.32,184.713 558.207,188.286 559.094,185.01 559.98,186.201 560.867,182.628 561.753,192.156 562.64,185.01 563.527,190.37 564.413,187.988 565.3,188.286 566.186,184.117 567.073,191.263 567.96,183.522 568.846,191.263 569.733,178.758 570.619,190.668 571.506,188.286 572.393,179.353 573.279,187.095 574.166,190.965 575.052,190.072 575.939,179.949 576.826,180.842 577.712,185.01 578.599,187.392 579.485,183.819 580.372,183.522 581.259,186.797 582.145,176.673 583.032,176.078 583.918,177.864 584.805,183.819 585.692,184.415 586.578,180.246 587.465,189.179 588.351,184.713 589.238,178.758 590.125,177.269 591.011,183.224 591.898,179.949 592.784,182.033 593.671,173.1 594.558,178.46 595.444,176.376 596.331,186.797 597.217,182.033 598.104,175.78 598.991,178.758 599.877,184.117 600.764,171.612 601.65,179.651 602.537,180.544 603.424,171.909 604.31,185.308 605.197,176.971 606.083,183.522 606.97,173.696 607.857,182.628 608.743,183.224 609.63,181.14 610.516,184.117 611.403,176.376 612.29,175.185 613.176,176.971 614.063,178.162 614.949,168.932 615.836,177.269 616.723,177.864 617.609,173.696 618.496,181.437 619.382,178.162 620.269,174.589 621.156,172.505 622.042,180.246 622.929,171.016 623.815,176.078 624.702,166.848 625.589,167.443 626.475,179.055 627.362,175.78 628.248,177.567 629.135,168.336 630.022,167.443 630.908,169.23 631.795,174.291 632.681,168.932 633.568,170.123 634.455,174.589 635.341,178.46 636.228,174.291 637.114,173.1 638.001,163.572 638.888,170.718 639.774,168.932 640.661,171.909 641.547,166.252 642.434,177.269 643.321,174.887 644.207,165.954 645.094,169.825 645.98,168.336 646.867,164.168 647.754,162.084 648.64,165.657 649.527,168.336 650.413,171.612 651.3,169.23 652.187,162.381 653.073,170.123 653.96,165.954 654.846,169.527 655.733,165.954 656.62,164.168 657.506,167.145 658.393,168.932 659.279,167.741 660.166,169.825 661.053,167.741 661.939,169.23 662.826,166.252 663.712,161.488 664.599,159.702 665.486,167.443 666.372,160.297 667.259,168.634 668.145,164.168 669.032,169.825 669.919,159.404 670.805,162.977 671.692,160.893 672.578,171.612 673.465,168.039 674.352,170.123 675.238,157.022 676.125,171.016 677.011,165.359 677.898,166.848 678.785,164.763 679.671,165.061 680.558,163.572 681.444,156.426 682.331,164.168 683.218,159.404 684.104,161.19 684.991,163.572 685.877,157.617 686.764,169.527 687.651,167.443 688.537,158.808 689.424,162.977 690.31,168.932 691.197,165.359 692.084,168.634 692.97,167.145 693.857,154.938 694.743,163.87 695.63,167.741 696.517,158.511 697.403,160.297 698.29,163.572 699.176,167.145 700.063,164.168 700.95,154.938 701.836,155.831 702.723,164.168 703.609,165.657 704.496,162.977 705.383,155.235 706.269,160.595 707.156,160.297 708.042,156.426 708.929,154.938 709.816,151.067 710.702,162.679 711.589,152.556 712.475,157.32 713.362,150.769 714.249,149.876 715.135,161.488 716.022,159.404 716.908,152.853 717.795,155.831 718.682,163.275 719.568,162.381 720.455,154.342 721.341,149.876 722.228,152.258 723.115,155.235 724.001,159.404 724.888,161.488 725.774,154.044 726.661,160.297 727.548,151.96 728.434,152.853 729.321,150.769 730.207,148.685 731.094,154.938 731.981,158.213 732.867,155.533 733.754,148.089 734.64,160.595 735.527,160.297 736.414,155.533 737.3,151.96 738.187,146.601 739.073,156.426 739.96,149.28 740.847,155.831 741.733,146.005 742.62,154.938 743.506,158.808 744.393,156.129 745.28,154.64 746.166,146.005 747.053,152.556 747.939,152.853 748.826,158.808 749.713,151.662 750.599,150.174 751.486,145.707 752.372,145.41 753.259,154.044 754.146,145.707 755.032,147.494 755.919,155.533 756.805,148.387 757.692,144.219 758.579,142.432 759.465,143.028 760.352,148.983 761.238,155.533 762.125,143.623 763.012,152.556 763.898,151.365 764.785,155.831 765.671,148.983 766.558,142.432 767.445,152.556 768.331,147.494 769.218,143.028 770.104,144.219 770.991,151.365 771.878,151.96 772.764,148.685 773.651,147.792 774.537,148.983 775.424,144.814 776.311,142.432 777.197,151.365 778.084,148.387 778.97,140.348 779.857,152.258 780.744,142.432 781.63,146.303 782.517,149.578 783.403,148.387 784.29,146.601 785.177,153.151 786.063,145.707 786.95,149.578 787.836,139.157 788.723,143.921 789.61,141.241 790.496,142.432 791.383,151.067 792.269,149.28 793.156,148.089 794.043,148.983 794.929,144.516 795.816,151.662 796.702,137.668 797.589,149.28 798.476,148.387 799.362,148.387 800.249,150.471 801.135,150.769 802.022,139.455 802.909,145.112 803.795,146.601 804.682,145.112 805.568,141.241 806.455,137.37 807.342,149.578 808.228,136.477 809.115,137.966 810.001,148.983 810.888,141.539 811.775,147.792 812.661,139.455 813.548,146.303 814.434,148.983 815.321,147.196 816.208,144.516 817.094,134.988 817.981,137.668 818.867,133.797 819.754,147.494 820.641,143.028 821.527,146.898 822.414,143.921 823.3,140.646 824.187,143.325 825.074,143.325 825.96,146.005 826.847,136.179 827.733,142.134 828.62,136.179 829.507,131.713 830.393,146.303 831.28,132.309 832.166,141.837 833.053,142.134 833.94,141.241 834.826,144.219 835.713,132.309 836.599,145.707 837.486,139.157 838.373,135.286 839.259,143.028 840.146,140.646 841.032,130.224 841.919,132.606 842.806,139.455 843.692,137.966 844.579,133.202 845.465,133.797 846.352,140.943 847.239,129.331 848.125,137.37 849.012,136.179 849.898,141.837 850.785,142.432 851.672,140.646 852.558,132.904 853.445,143.325 854.331,143.028 855.218,135.882 856.105,138.561 856.991,135.286 857.878,138.561 858.764,132.904 859.651,136.477 860.538,140.05 861.424,141.241 862.311,128.736 863.197,134.691 864.084,138.859 864.971,138.859 865.857,127.842 866.744,131.415 867.63,136.775 868.517,129.331 869.404,126.354 870.29,136.179 871.177,133.797 872.063,130.82 872.95,131.713 873.837,131.415 874.723,137.668 875.61,139.455 876.496,130.522 877.383,132.011 878.27,132.904 879.156,125.163 880.043,128.438 880.929,136.179 881.816,137.073 882.703,125.163 883.589,133.202 884.476,130.82 885.362,130.82 886.249,131.118 887.136,134.393 888.022,128.438 888.909,126.056 889.795,132.011 890.682,132.309 891.569,136.477 892.455,134.988 893.342,129.927 894.228,131.415 895.115,126.651 896.002,133.797 896.888,131.713 897.775,132.011 898.661,123.078 899.548,129.331 900.435,133.797 901.321,125.46 902.208,128.438 903.094,129.033 903.981,136.179 904.868,130.82 905.754,131.118 906.641,124.269 907.527,127.545 908.414,123.972 909.301,123.972 910.187,122.781 911.074,122.185 911.96,125.46 912.847,122.781 913.734,134.988 914.62,129.331 915.507,131.415 916.393,124.865 917.28,127.842 918.167,123.972 919.053,126.354 919.94,123.674 920.826,129.033 921.713,126.056 922.6,122.483 923.486,122.185 924.373,123.972 925.259,129.927 926.146,127.842 927.033,127.247 927.919,122.483 928.806,125.46 929.692,121.292 930.579,123.972 931.466,121.59 932.352,122.185 933.239,132.011 934.125,123.674 935.012,119.505 935.899,118.017 936.785,119.803 937.672,118.314 938.558,125.758 939.445,124.567 940.332,125.163 941.218,130.82 942.105,120.399 942.991,122.781 943.878,128.14 944.765,127.247 945.651,121.292 946.538,129.331 947.424,119.803 948.311,125.758 949.198,124.865 950.084,117.421 950.971,122.781 951.857,118.017 952.744,122.483 953.631,129.927 954.517,129.629 955.404,124.865 956.29,121.292 957.177,129.033 958.064,118.314 958.95,128.438 959.837,121.292 960.723,129.331 961.61,127.247 962.497,117.123 963.383,115.932 964.27,119.208 965.156,114.146 966.043,113.848 966.93,123.972 967.816,125.758 968.703,121.292 969.589,114.741 970.476,120.399 971.363,119.803 972.249,123.674 973.136,114.741 974.022,115.932 974.909,119.505 975.796,115.932 976.682,113.848 977.569,122.185 978.455,120.101 979.342,123.972 980.229,122.483 981.115,123.972 982.002,124.567 982.888,118.612 983.775,120.399 984.661,126.651 985.548,117.123 986.435,113.848 987.321,112.359 988.208,123.376 989.095,113.848 989.981,119.208 990.868,118.017 991.754,118.612 992.641,117.123 993.528,118.314 994.414,124.567 995.301,122.483 996.187,116.826 997.074,117.123 997.961,115.635 998.847,116.528 999.734,113.253 1000.62,113.253 1001.51,120.399 1002.39,112.062 1003.28,112.657 1004.17,120.399 1005.05,116.528 1005.94,116.528 1006.83,122.781 1007.71,116.528 1008.6,113.55 1009.49,123.376 1010.37,120.101 1011.26,109.084 1012.15,119.803 1013.03,109.977 1013.92,111.764 1014.81,116.826 1015.69,123.078 1016.58,120.994 1017.47,116.528 1018.35,115.039 1019.24,112.359 1020.13,117.123 1021.01,118.91 1021.9,116.23 1022.79,117.123 1023.67,108.489 1024.56,109.977 1025.45,121.887 1026.33,117.123 1027.22,107.893 1028.1,115.932 1028.99,117.421 1029.88,118.314 1030.76,114.741 1031.65,114.146 1032.54,108.786 1033.42,113.848 1034.31,109.382 1035.2,118.314 1036.08,112.062 1036.97,109.977 1037.86,106.107 1038.74,110.871 1039.63,105.809 1040.52,109.084 1041.4,114.741 1042.29,112.062 1043.18,107 1044.06,115.337 1044.95,110.871 1045.84,118.91 1046.72,119.505 1047.61,116.528 1048.5,113.55 1049.38,115.337 1050.27,109.68 1051.16,113.253 1052.04,106.404 1052.93,107.298 1053.82,111.466 1054.7,106.107 1055.59,113.253 1056.48,115.635 1057.36,112.657 1058.25,107 1059.14,109.084 1060.02,110.871 1060.91,107.298 1061.8,112.657 1062.68,112.359 1063.57,109.68 1064.46,107.595 1065.34,115.039 1066.23,105.809 1067.12,115.635 1068,103.427 1068.89,105.809 1069.78,117.123 1070.66,107.893 1071.55,109.68 1072.43,112.062 1073.32,105.511 1074.21,113.253 1075.09,106.702 1075.98,113.253 1076.87,107.595 1077.75,109.977 1078.64,108.786 1079.53,115.635 1080.41,114.741 1081.3,112.657 1082.19,106.107 1083.07,110.871 1083.96,114.444 1084.85,102.534 1085.73,105.809 1086.62,114.741 1087.51,101.343 1088.39,101.343 1089.28,103.725 1090.17,113.848 1091.05,105.511 1091.94,101.64 1092.83,112.657 1093.71,103.427 1094.6,103.427"/>
<polyline fill="none" stroke="#d85218" stroke-width="0.5" stroke-linecap="butt" stroke-linejoin="miter" points="208,350.857 208.887,351.086 209.773,350.865 210.66,349.816 211.546,350.094 212.433,349.261 213.32,348.848 214.206,348.905 215.093,347.712 215.979,346.29 216.866,345.057 217.753,345.334 218.639,344.927 219.526,344.793 220.412,344.094 221.299,343.137 222.186,341.776 223.072,340.989 223.959,340.478 224.845,338.926 225.732,338.373 226.619,337.203 227.505,336.374 228.392,335.332 229.278,335.034 230.165,334.396 231.052,333.056 231.938,331.759 232.825,330.206 233.711,329.525 234.598,329.185 235.485,328.632 236.371,327.484 237.258,327.101 238.144,326.676 239.031,326.144 239.918,324.485 240.804,324.698 241.691,323.804 242.577,323.634 243.464,322.316 244.351,321.274 245.237,320.997 246.124,320.295 247.01,319.381 247.897,317.828 248.784,317.849 249.67,317.36 250.557,315.85 251.443,314.617 252.33,314.744 253.217,313.064 254.103,312.745 254.99,311.979 255.876,311.979 256.763,311.597 257.65,310.767 258.536,310.427 259.423,309.278 260.309,309.364 261.196,308.173 262.083,306.982 262.969,306.577 263.856,305.939 264.742,304.748 265.629,304.408 266.516,303.77 267.402,302.409 268.289,301.112 269.175,300.75 270.062,299.793 270.949,299.155 271.835,299.368 272.722,298.9 273.608,298.389 274.495,298.304 275.382,298.198 276.268,298.155 277.155,297.751 278.041,296.837 278.928,295.858 279.815,295.922 280.701,295.433 281.588,294.327 282.474,294.136 283.361,293.859 284.248,292.711 285.134,291.839 286.021,291.371 286.907,290.605 287.794,289.244 288.681,288.287 289.567,287.287 290.454,287.415 291.34,286.99 292.227,286.522 293.114,286.437 294,286.373 294.887,285.586 295.773,284.438 296.66,283.714 297.547,282.736 298.433,282.417 299.32,281.418 300.206,281.694 301.093,280.928 301.98,281.226 302.866,280.631 303.753,280.141 304.639,279.121 305.526,278.61 306.413,278.121 307.299,277.908 308.186,277.611 309.072,277.185 309.959,277.185 310.846,276.122 311.732,275.973 312.619,274.612 313.505,275.058 314.392,274.335 315.279,273.506 316.165,272.74 317.052,272.209 317.938,271.953 318.825,271.932 319.712,271.06 320.598,270.443 321.485,269.763 322.371,268.891 323.258,268.529 324.145,267.955 325.031,267.998 325.918,266.743 326.804,266.339 327.691,266.402 328.578,265.935 329.464,266.19 330.351,265.275 331.237,264.871 332.124,264.914 333.011,264.191 333.897,264.063 334.784,263.957 335.67,263.744 336.557,263.829 337.444,263.531 338.33,263.319 339.217,262.128 340.103,260.915 340.99,260.915 341.877,259.597 342.763,259.618 343.65,259.214 344.536,259.108 345.423,259.32 346.31,258.767 347.196,257.874 348.083,257.342 348.969,256.832 349.856,256.151 350.743,256.3 351.629,256.173 352.516,256.024 353.402,255.152 354.289,255.471 355.176,254.897 356.062,253.599 356.949,253.216 357.835,252.834 358.722,253.174 359.609,252.876 360.495,252.6 361.382,251.345 362.268,251.111 363.155,250.239 364.042,250.452 364.928,250.686 365.815,250.6 366.701,250.111 367.588,249.409 368.475,248.984 369.361,248.41 370.248,248.367 371.134,247.708 372.021,247.049 372.908,247.198 373.794,247.283 374.681,247.049 375.567,246.538 376.454,246.113 377.341,245.794 378.227,245.624 379.114,244.901 380,245.198 380.887,245.751 381.774,245.603 382.66,244.624 383.547,243.922 384.433,243.816 385.32,243.157 386.207,243.306 387.093,242.923 387.98,243.029 388.866,241.923 389.753,241.434 390.64,240.69 391.526,240.605 392.413,239.839 393.299,239.584 394.186,238.456 395.073,238.839 395.959,239.009 396.846,238.797 397.732,238.286 398.619,237.521 399.506,236.776 400.392,236.436 401.279,236.308 402.165,236.245 403.052,235.649 403.939,234.82 404.825,234.182 405.712,233.565 406.598,233.033 407.485,231.991 408.372,231.502 409.258,230.97 410.145,230.8 411.031,230.524 411.918,230.545 412.805,230.056 413.691,230.056 414.578,228.95 415.464,229.588 416.351,230.162 417.238,230.034 418.124,229.035 419.011,229.035 419.897,229.439 420.784,228.673 421.671,228.673 422.557,228.567 423.444,227.78 424.33,227.482 425.217,227.631 426.104,227.099 426.99,227.099 427.877,226.504 428.763,225.738 429.65,225.802 430.537,225.802 431.423,225.994 432.31,224.994 433.196,225.122 434.083,224.675 434.97,224.143 435.856,224.42 436.743,224.377 437.629,223.335 438.516,223.739 439.403,223.144 440.289,222.272 441.176,221.995 442.062,221.421 442.949,221.208 443.836,221.059 444.722,221.4 445.609,220.506 446.495,220.124 447.382,220.081 448.269,220.06 449.155,219.953 450.042,220.124 450.928,219.358 451.815,219.401 452.702,219.358 453.588,219.337 454.475,218.869 455.361,218.337 456.248,217.104 457.135,216.359 458.021,216.253 458.908,215.955 459.794,214.956 460.681,214.722 461.568,213.552 462.454,213.509 463.341,213.445 464.227,213.403 465.114,213.722 466.001,213.488 466.887,213.828 467.774,213.765 468.66,214.339 469.547,214.615 470.434,214.998 471.32,215.402 472.207,215.849 473.093,215.615 473.98,215.551 474.867,214.87 475.753,214.636 476.64,214.084 477.526,213.041 478.413,212.191 479.3,211.106 480.186,211.042 481.073,210.957 481.959,209.915 482.846,209.532 483.733,209.405 484.619,208.703 485.506,208.043 486.392,207.49 487.279,206.789 488.166,206.427 489.052,206.236 489.939,206.108 490.825,205.959 491.712,205.768 492.599,205.045 493.485,204.853 494.372,205.066 495.258,204.789 496.145,203.811 497.032,204.194 497.918,203.365 498.805,203.237 499.691,203.939 500.578,203.662 501.465,203.896 502.351,203.96 503.238,203.96 504.124,203.641 505.011,204.3 505.898,203.428 506.784,203.513 507.671,202.875 508.557,202.812 509.444,201.854 510.331,201.748 511.217,202.386 512.104,201.706 512.99,201.493 513.877,200.281 514.764,199.536 515.65,199.813 516.537,200.493 517.423,200.004 518.31,199.834 519.197,199.473 520.083,199.898 520.97,199.409 521.856,199.855 522.743,200.259 523.63,199.579 524.516,199.685 525.403,198.877 526.289,198.664 527.176,199.196 528.063,198.324 528.949,197.835 529.836,197.729 530.722,197.282 531.609,196.878 532.496,196.07 533.382,195.814 534.269,195.495 535.155,194.9 536.042,194.985 536.929,194.56 537.815,194.283 538.702,194.964 539.588,193.964 540.475,193.624 541.362,193.73 542.248,192.731 543.135,193.071 544.021,192.199 544.908,192.071 545.795,192.007 546.681,191.667 547.568,191.433 548.454,191.072 549.341,190.349 550.228,191.05 551.114,190.412 552.001,190.625 552.887,190.774 553.774,190.242 554.661,190.497 555.547,189.753 556.434,190.349 557.32,190.093 558.207,189.859 559.094,189.413 559.98,189.158 560.867,188.626 561.753,188.477 562.64,188.222 563.527,187.882 564.413,187.967 565.3,187.733 566.186,187.52 567.073,187.158 567.96,187.562 568.846,186.882 569.733,187.201 570.619,186.776 571.506,186.946 572.393,187.18 573.279,186.691 574.166,187.01 575.052,186.924 575.939,187.286 576.826,186.542 577.712,186.031 578.599,185.797 579.485,186.031 580.372,185.5 581.259,185.5 582.145,185.181 583.032,185.032 583.918,183.99 584.805,183.245 585.692,183.564 586.578,183.373 587.465,182.607 588.351,182.543 589.238,182.884 590.125,182.735 591.011,182.182 591.898,181.884 592.784,181.607 593.671,181.501 594.558,180.523 595.444,180.65 596.331,180.672 597.217,181.31 598.104,181.182 598.991,180.565 599.877,180.459 600.764,180.097 601.65,179.162 602.537,179.225 603.424,179.459 604.31,178.651 605.197,179.034 606.083,178.673 606.97,179.417 607.857,179.077 608.743,179.523 609.63,179.268 610.516,179.204 611.403,179.8 612.29,179.63 613.176,178.992 614.063,179.374 614.949,179.268 615.836,178.439 616.723,178.821 617.609,178.29 618.496,178.056 619.382,177.907 620.269,178.226 621.156,177.652 622.042,176.886 622.929,176.822 623.815,175.886 624.702,175.865 625.589,175.27 626.475,174.589 627.362,174.653 628.248,175.142 629.135,175.163 630.022,174.483 630.908,174.036 631.795,173.164 632.681,172.888 633.568,172.484 634.455,172.313 635.341,171.909 636.228,172.441 637.114,172.313 638.001,172.76 638.888,172.484 639.774,171.888 640.661,171.399 641.547,170.995 642.434,170.846 643.321,171.548 644.207,171.952 645.094,171.356 645.98,171.42 646.867,171.293 647.754,170.548 648.64,169.379 649.527,168.762 650.413,168.421 651.3,168.996 652.187,168.889 653.073,168.421 653.96,168.294 654.846,168.273 655.733,167.72 656.62,167.082 657.506,166.954 658.393,166.763 659.279,166.805 660.166,167.06 661.053,167.613 661.939,167.762 662.826,167.826 663.712,167.443 664.599,166.89 665.486,166.699 666.372,166.507 667.259,166.103 668.145,166.039 669.032,165.912 669.919,166.316 670.805,165.763 671.692,165.338 672.578,164.848 673.465,164.976 674.352,164.997 675.238,165.061 676.125,164.402 677.011,165.082 677.898,165.486 678.785,165.444 679.671,165.763 680.558,165.508 681.444,165.465 682.331,164.508 683.218,164.848 684.104,164.593 684.991,164.615 685.877,164.04 686.764,163.296 687.651,163.253 688.537,163.998 689.424,163.126 690.31,162.956 691.197,163.104 692.084,163.147 692.97,163.402 693.857,163.657 694.743,163.551 695.63,163.53 696.517,164.125 697.403,163.934 698.29,163.7 699.176,164.125 700.063,163.955 700.95,163.721 701.836,163.445 702.723,162.934 703.609,162.594 704.496,162.615 705.383,162.211 706.269,161.36 707.156,161.765 708.042,161.509 708.929,160.701 709.816,160.446 710.702,159.787 711.589,159.723 712.475,158.681 713.362,158.192 714.249,157.894 715.135,157.469 716.022,157.277 716.908,156.83 717.795,156.107 718.682,156.15 719.568,156.341 720.455,156.49 721.341,156.341 722.228,155.98 723.115,156.065 724.001,155.533 724.888,156.022 725.774,156.32 726.661,156.554 727.548,157.298 728.434,156.618 729.321,156.15 730.207,156.001 731.094,155.491 731.981,154.895 732.867,154.597 733.754,154.682 734.64,154.555 735.527,155.15 736.414,155.512 737.3,155.235 738.187,154.555 739.073,154.023 739.96,153.747 740.847,153.555 741.733,153.768 742.62,153.428 743.506,153.874 744.393,154.151 745.28,154.002 746.166,153.938 747.053,153.789 747.939,153.215 748.826,152.683 749.713,152.917 750.599,152.896 751.486,153.151 752.372,152.385 753.259,152.109 754.146,151.981 755.032,151.96 755.919,151.428 756.805,151.194 757.692,150.641 758.579,149.897 759.465,149.642 760.352,148.961 761.238,148.685 762.125,148.451 763.012,147.877 763.898,148.047 764.785,148.451 765.671,149.195 766.558,148.834 767.445,148.6 768.331,148.961 769.218,148.387 770.104,148.004 770.991,148.004 771.878,148.642 772.764,149.28 773.651,149.259 774.537,148.706 775.424,149.089 776.311,148.536 777.197,147.898 778.084,147.579 778.97,147.536 779.857,147.388 780.744,147.366 781.63,147.005 782.517,147.239 783.403,147.621 784.29,147.409 785.177,147.026 786.063,147.345 786.95,147.196 787.836,147.239 788.723,146.835 789.61,146.941 790.496,146.218 791.383,145.792 792.269,146.558 793.156,146.345 794.043,146.75 794.929,146.941 795.816,146.579 796.702,146.813 797.589,146.175 798.476,145.899 799.362,146.09 800.249,146.005 801.135,146.813 802.022,147.302 802.909,147.175 803.795,147.366 804.682,147.047 805.568,146.75 806.455,146.26 807.342,145.431 808.228,145.792 809.115,144.708 810.001,144.729 810.888,144.708 811.775,144.219 812.661,144.176 813.548,143.389 814.434,143.07 815.321,143.751 816.208,143.9 817.094,143.751 817.981,143.028 818.867,142.772 819.754,142.517 820.641,142.368 821.527,142.836 822.414,143.474 823.3,143.113 824.187,143.049 825.074,142.73 825.96,143.006 826.847,142.985 827.733,142.071 828.62,141.709 829.507,141.114 830.393,140.88 831.28,141.496 832.166,141.39 833.053,140.986 833.94,140.922 834.826,140.518 835.713,140.539 836.599,139.944 837.486,140.114 838.373,139.816 839.259,139.051 840.146,139.54 841.032,139.433 841.919,139.008 842.806,139.072 843.692,138.583 844.579,138.987 845.465,138.37 846.352,137.774 847.239,137.753 848.125,136.69 849.012,137.051 849.898,136.371 850.785,136.562 851.672,137.073 852.558,136.902 853.445,136.349 854.331,137.285 855.218,138.03 856.105,137.774 856.991,137.817 857.878,137.966 858.764,138.306 859.651,137.732 860.538,138.242 861.424,138.434 862.311,138.795 863.197,137.859 864.084,137.307 864.971,137.179 865.857,137.604 866.744,136.498 867.63,135.669 868.517,135.733 869.404,135.073 870.29,134.435 871.177,134.265 872.063,134.329 872.95,133.925 873.837,133.329 874.723,132.628 875.61,133.266 876.496,133.606 877.383,133.01 878.27,132.521 879.156,132.883 880.043,132.436 880.929,131.841 881.816,132.33 882.703,133.095 883.589,132.309 884.476,132.266 885.362,132.266 886.249,132.202 887.136,132.181 888.022,131.947 888.909,131.16 889.795,130.841 890.682,130.841 891.569,130.799 892.455,131.607 893.342,132.075 894.228,131.628 895.115,131.224 896.002,131.33 896.888,131.373 897.775,131.437 898.661,131.522 899.548,130.948 900.435,130.586 901.321,130.969 902.208,130.926 903.094,130.671 903.981,130.437 904.868,130.416 905.754,130.118 906.641,130.203 907.527,129.693 908.414,129.756 909.301,129.055 910.187,128.502 911.074,127.842 911.96,127.779 912.847,127.502 913.734,126.715 914.62,127.396 915.507,127.46 916.393,127.63 917.28,126.822 918.167,126.609 919.053,126.098 919.94,126.247 920.826,125.971 921.713,126.332 922.6,126.481 923.486,126.46 924.373,126.46 925.259,126.354 926.146,126.864 927.033,126.354 927.919,126.205 928.806,125.567 929.692,125.609 930.579,125.141 931.466,125.141 932.352,124.801 933.239,124.695 934.125,124.907 935.012,124.737 935.899,124.525 936.785,124.227 937.672,123.929 938.558,123.1 939.445,122.951 940.332,122.759 941.218,122.951 942.105,123.334 942.991,123.27 943.878,123.185 944.765,123.653 945.651,124.014 946.538,123.249 947.424,123.653 948.311,123.674 949.198,124.227 950.084,124.588 950.971,124.525 951.857,124.312 952.744,123.844 953.631,123.653 954.517,123.589 955.404,124.248 956.29,124.397 957.177,123.908 958.064,124.035 958.95,123.823 959.837,123.759 960.723,123.865 961.61,124.12 962.497,124.291 963.383,124.269 964.27,123.78 965.156,123.865 966.043,123.27 966.93,122.121 967.816,121.717 968.703,121.781 969.589,121.781 970.476,120.76 971.363,120.909 972.249,120.292 973.136,120.462 974.022,119.42 974.909,118.612 975.796,118.782 976.682,118.782 977.569,118.399 978.455,118.974 979.342,119.42 980.229,119.42 981.115,119.186 982.002,119.378 982.888,120.08 983.775,119.952 984.661,119.995 985.548,120.207 986.435,120.377 987.321,120.228 988.208,119.718 989.095,120.25 989.981,120.25 990.868,120.037 991.754,119.888 992.641,119.505 993.528,119.123 994.414,118.718 995.301,118.718 996.187,118.995 997.074,118.74 997.961,118.059 998.847,117.953 999.734,118.144 1000.62,118.208 1001.51,117.485 1002.39,117.953 1003.28,117.442 1004.17,117.06 1005.05,117.187 1005.94,117.145 1006.83,117.017 1007.71,116.889 1008.6,116.464 1009.49,116.23 1010.37,116.677 1011.26,116.996 1012.15,116.464 1013.03,116.932 1013.92,116.698 1014.81,116.081 1015.69,116.422 1016.58,117.166 1017.47,117.208 1018.35,117.208 1019.24,117.102 1020.13,116.358 1021.01,116.4 1021.9,116.783 1022.79,116.273 1023.67,116.06 1024.56,116.017 1025.45,115.316 1026.33,116.166 1027.22,116.549 1028.1,115.911 1028.99,115.401 1029.88,115.146 1030.76,115.273 1031.65,115.252 1032.54,115.379 1033.42,114.784 1034.31,114.422 1035.2,113.933 1036.08,114.018 1036.97,114.273 1037.86,114.273 1038.74,113.146 1039.63,112.7 1040.52,112.551 1041.4,112.062 1042.29,111.87 1043.18,111.424 1044.06,110.871 1044.95,110.956 1045.84,111.105 1046.72,111.466 1047.61,112.189 1048.5,112.062 1049.38,112.168 1050.27,112.551 1051.16,112.806 1052.04,112.976 1052.93,113.019 1053.82,112.891 1054.7,112.657 1055.59,112.232 1056.48,112.678 1057.36,112.7 1058.25,112.827 1059.14,111.977 1060.02,111.232 1060.91,110.828 1061.8,110.381 1062.68,110.19 1063.57,110.381 1064.46,110.126 1065.34,110.211 1066.23,110.764 1067.12,110.36 1068,111.041 1068.89,110.339 1069.78,109.637 1070.66,109.956 1071.55,110.02 1072.43,110.062 1073.32,110.147 1074.21,110.02 1075.09,110.062 1075.98,109.658 1076.87,109.914 1077.75,109.914 1078.64,109.552 1079.53,109.765 1080.41,109.765 1081.3,110.573 1082.19,111.062 1083.07,110.275 1083.96,110.488 1084.85,110.828 1085.73,110.147 1086.62,110.169 1087.51,110.275 1088.39,109.892 1089.28,109.042 1090.17,108.765 1091.05,109.042 1091.94,108.808 1092.83,107.808 1093.71,107.659 1094.6,107"/>
<polyline fill="none" stroke="#ecb01f" stroke-width="0.5" stroke-linecap="butt" stroke-linejoin="miter" points="208,350.857 208.887,351.086 209.773,350.865 210.66,349.816 211.546,350.094 212.433,349.261 213.32,348.848 214.206,348.905 215.093,347.712 215.979,346.29 216.866,345.057 217.753,345.334 218.639,344.927 219.526,344.793 220.412,343.168 221.299,342.147 222.186,341.697 223.072,340.871 223.959,339.743 224.845,339.197 225.732,338.089 226.619,338.052 227.505,336.448 228.392,335.806 229.278,334.744 230.165,334.093 231.052,332.924 231.938,331.72 232.825,330.485 233.711,330.335 234.598,330.333 235.485,328.988 236.371,328.577 237.258,328.604 238.144,327.843 239.031,326.379 239.918,326.386 240.804,325.475 241.691,325.287 242.577,323.646 243.464,322.022 244.351,321.591 245.237,320.389 246.124,319.942 247.01,318.692 247.897,318.66 248.784,318.632 249.67,317.428 250.557,315.996 251.443,316.032 252.33,314.59 253.217,314.485 254.103,314.327 254.99,313.891 255.876,312.75 256.763,312.062 257.65,311.384 258.536,310.159 259.423,310.116 260.309,309.193 261.196,308.373 262.083,307.675 262.969,306.333 263.856,305.598 264.742,304.78 265.629,304.771 266.516,303.586 267.402,302.334 268.289,301.907 269.175,300.938 270.062,300.501 270.949,300.8 271.835,301.065 272.722,300.353 273.608,300.373 274.495,300.391 275.382,299.785 276.268,299.148 277.155,297.631 278.041,296.903 278.928,296.68 279.815,295.435 280.701,294.064 281.588,293.663 282.474,293.6 283.361,292.89 284.248,292.683 285.134,292.172 286.021,291.913 286.907,290.766 287.794,289.745 288.681,288.673 289.567,288.504 290.454,288.125 291.34,288.147 292.227,287.709 293.114,287.09 294,286.244 294.887,285.229 295.773,284.326 296.66,283.555 297.547,283.556 298.433,282.706 299.32,282.997 300.206,281.651 301.093,281.927 301.98,281.584 302.866,281.212 303.753,280.423 304.639,280.049 305.526,279.519 306.413,279.178 307.299,278.482 308.186,277.666 309.072,277.627 309.959,276.643 310.846,276.324 311.732,275.221 312.619,275.418 313.505,275.267 314.392,274.378 315.279,273.621 316.165,272.848 317.052,272.913 317.938,273.135 318.825,272.154 319.712,271.281 320.598,270.209 321.485,269.648 322.371,268.984 323.258,268.623 324.145,268.433 325.031,267.445 325.918,267.548 326.804,267.607 327.691,266.873 328.578,267.235 329.464,266.51 330.351,266.814 331.237,266.593 332.124,265.218 333.011,264.617 333.897,264.507 334.784,264.081 335.67,264.39 336.557,264.207 337.444,263.356 338.33,262.075 339.217,260.87 340.103,260.877 340.99,259.869 341.877,259.986 342.763,260.385 343.65,260.708 344.536,260.307 345.423,259.394 346.31,258.484 347.196,257.902 348.083,258.105 348.969,257.565 349.856,257.674 350.743,256.821 351.629,255.964 352.516,255.169 353.402,255.279 354.289,255.017 355.176,253.966 356.062,254.405 356.949,254.108 357.835,254.4 358.722,253.58 359.609,253.112 360.495,251.91 361.382,251.691 362.268,251.104 363.155,251.301 364.042,251.411 364.928,250.985 365.815,250.802 366.701,249.952 367.588,248.803 368.475,248.926 369.361,249.166 370.248,248.987 371.134,247.747 372.021,248.15 372.908,247.624 373.794,247.516 374.681,246.602 375.567,246.64 376.454,246.771 377.341,246.594 378.227,245.781 379.114,245.941 380,246.084 380.887,246.277 381.774,245.302 382.66,244.468 383.547,243.561 384.433,243.409 385.32,243.634 386.207,243.376 387.093,243.08 387.98,241.802 388.866,241.713 389.753,240.946 390.64,240.623 391.526,240.172 392.413,240.556 393.299,239.621 394.186,239.968 395.073,239.982 395.959,239.241 396.846,238.778 397.732,238.334 398.619,237.512 399.506,237.338 400.392,236.495 401.279,236.891 402.165,235.737 403.052,234.71 403.939,233.927 404.825,234.049 405.712,233.011 406.598,232.48 407.485,232.564 408.372,231.821 409.258,231.912 410.145,231.797 411.031,231.727 411.918,231.436 412.805,231.242 413.691,230.513 414.578,231.042 415.464,231.416 416.351,230.798 417.238,229.725 418.124,229.163 419.011,229.677 419.897,228.891 420.784,228.551 421.671,228.838 422.557,227.85 423.444,227.756 424.33,228.13 425.217,227.481 426.104,227.166 426.99,227.147 427.877,226.77 428.763,226.761 429.65,226.132 430.537,226.26 431.423,225.555 432.31,225.418 433.196,224.773 434.083,224.657 434.97,224.554 435.856,224.756 436.743,223.856 437.629,224.299 438.516,223.417 439.403,222.468 440.289,222.18 441.176,221.792 442.062,221.382 442.949,221.803 443.836,222.111 444.722,220.978 445.609,220.232 446.495,220.55 447.382,220.865 448.269,221.31 449.155,221.051 450.042,220.624 450.928,220.211 451.815,219.549 452.702,219.549 453.588,218.731 454.475,217.839 455.361,216.75 456.248,216.468 457.135,215.792 458.021,215.158 458.908,214.495 459.794,215.116 460.681,214.392 461.568,214.828 462.454,214.987 463.341,215.129 464.227,215.516 465.114,215.6 466.001,215.739 466.887,215.078 467.774,215.177 468.66,215.494 469.547,215.514 470.434,215.532 471.32,215.516 472.207,215.665 473.093,214.782 473.98,214.128 474.867,214.004 475.753,213.402 476.64,212.375 477.526,211.495 478.413,210.416 479.3,210.242 480.186,210.741 481.073,209.942 481.959,209.983 482.846,210.413 483.733,209.879 484.619,209.633 485.506,208.562 486.392,207.511 487.279,207.558 488.166,207.371 489.052,206.811 489.939,206.313 490.825,205.509 491.712,204.761 492.599,205.569 493.485,205.665 494.372,205.752 495.258,205.141 496.145,205.776 497.032,204.704 497.918,203.979 498.805,204.512 499.691,204.463 500.578,204.976 501.465,204.778 502.351,204.503 503.238,203.408 504.124,203.906 505.011,203.465 505.898,203.924 506.784,203.219 507.671,202.789 508.557,202.209 509.444,201.365 510.331,201.99 511.217,201.694 512.104,201.628 512.99,200.586 513.877,199.725 514.764,200.431 515.65,200.831 516.537,200.859 517.423,200.492 518.31,200.721 519.197,201.023 520.083,200.081 520.97,200.487 521.856,200.455 522.743,200.132 523.63,200.204 524.516,199.057 525.403,197.971 526.289,198.216 527.176,197.746 528.063,197.688 528.949,197.898 529.836,197.169 530.722,197.141 531.609,196.593 532.496,195.745 533.382,196.136 534.269,195.666 535.155,196 536.042,195.872 536.929,194.776 537.815,195.208 538.702,194.218 539.588,193.664 540.475,194.218 541.362,193.271 542.248,193.574 543.135,192.6 544.021,192.355 544.908,191.875 545.795,192.167 546.681,191.773 547.568,191.979 548.454,191.18 549.341,191.68 550.228,191.471 551.114,191.219 552.001,191.224 552.887,191.228 553.774,191.003 554.661,190.409 555.547,190.7 556.434,190.271 557.32,189.659 558.207,189.508 559.094,189.014 559.98,188.704 560.867,188.036 561.753,188.489 562.64,188.107 563.527,188.356 564.413,188.315 565.3,188.312 566.186,187.851 567.073,188.226 567.96,187.709 568.846,188.099 569.733,187.072 570.619,187.468 571.506,187.558 572.393,186.655 573.279,186.704 574.166,187.172 575.052,187.491 575.939,186.662 576.826,186.022 577.712,185.911 578.599,186.074 579.485,185.826 580.372,185.572 581.259,185.707 582.145,184.714 583.032,183.764 583.918,183.115 584.805,183.193 585.692,183.327 586.578,182.988 587.465,183.669 588.351,183.784 589.238,183.231 590.125,182.576 591.011,182.647 591.898,182.35 592.784,182.315 593.671,181.302 594.558,180.99 595.444,180.482 596.331,181.177 597.217,181.271 598.104,180.667 598.991,180.457 599.877,180.859 600.764,179.843 601.65,179.822 602.537,179.901 603.424,179.022 604.31,179.713 605.197,179.412 606.083,179.864 606.97,179.186 607.857,179.564 608.743,179.967 609.63,180.096 610.516,180.538 611.403,180.08 612.29,179.542 613.176,179.259 614.063,179.139 614.949,178.016 615.836,177.934 616.723,177.926 617.609,177.461 618.496,177.898 619.382,177.927 620.269,177.56 621.156,177.004 622.042,177.361 622.929,176.663 623.815,176.599 624.702,175.527 625.589,174.638 626.475,175.124 627.362,175.196 628.248,175.456 629.135,174.674 630.022,173.879 630.908,173.367 631.795,173.469 632.681,172.97 633.568,172.657 634.455,172.869 635.341,173.484 636.228,173.573 637.114,173.521 638.001,172.427 638.888,172.239 639.774,171.875 640.661,171.879 641.547,171.26 642.434,171.921 643.321,172.247 644.207,171.555 645.094,171.365 645.98,171.032 646.867,170.277 647.754,169.376 648.64,168.967 649.527,168.898 650.413,169.196 651.3,169.2 652.187,168.45 653.073,168.634 653.96,168.339 654.846,168.47 655.733,168.193 656.62,167.751 657.506,167.684 658.393,167.821 659.279,167.813 660.166,168.034 661.053,168.002 661.939,168.137 662.826,167.929 663.712,167.221 664.599,166.394 665.486,166.51 666.372,165.827 667.259,166.135 668.145,165.919 669.032,166.348 669.919,165.585 670.805,165.298 671.692,164.814 672.578,165.561 673.465,165.834 674.352,166.305 675.238,165.284 676.125,165.915 677.011,165.854 677.898,165.963 678.785,165.831 679.671,165.746 680.558,165.507 681.444,164.509 682.331,164.471 683.218,163.914 684.104,163.615 684.991,163.61 685.877,162.951 686.764,163.674 687.651,164.089 688.537,163.508 689.424,163.45 690.31,164.052 691.197,164.196 692.084,164.684 692.97,164.955 693.857,163.853 694.743,163.855 695.63,164.282 696.517,163.648 697.403,163.279 698.29,163.312 699.176,163.733 700.063,163.781 700.95,162.809 701.836,162.041 702.723,162.275 703.609,162.647 704.496,162.683 705.383,161.864 706.269,161.725 707.156,161.568 708.042,161.002 708.929,160.336 709.816,159.316 710.702,159.686 711.589,158.902 712.475,158.728 713.362,157.853 714.249,156.976 715.135,157.472 716.022,157.684 716.908,157.153 717.795,157.008 718.682,157.697 719.568,158.212 720.455,157.786 721.341,156.917 722.228,156.404 723.115,156.276 724.001,156.62 724.888,157.155 725.774,156.813 726.661,157.196 727.548,156.62 728.434,156.206 729.321,155.608 730.207,154.847 731.094,154.857 731.981,155.226 732.867,155.26 733.754,154.471 734.64,155.145 735.527,155.711 736.414,155.692 737.3,155.281 738.187,154.327 739.073,154.558 739.96,153.977 740.847,154.181 741.733,153.282 742.62,153.464 743.506,154.052 744.393,154.28 745.28,154.32 746.166,153.406 747.053,153.312 747.939,153.262 748.826,153.872 749.713,153.629 750.599,153.249 751.486,152.419 752.372,151.649 753.259,151.912 754.146,151.23 755.032,150.819 755.919,151.337 756.805,151.013 757.692,150.266 758.579,149.405 759.465,148.703 760.352,148.734 761.238,149.482 762.125,148.838 763.012,149.246 763.898,149.479 764.785,150.178 765.671,150.046 766.558,149.209 767.445,149.577 768.331,149.348 769.218,148.653 770.104,148.165 770.991,148.517 771.878,148.896 772.764,148.873 773.651,148.754 774.537,148.779 775.424,148.343 776.311,147.693 777.197,148.097 778.084,148.129 778.97,147.273 779.857,147.821 780.744,147.229 781.63,147.127 782.517,147.396 783.403,147.505 784.29,147.406 785.177,148.038 786.063,147.781 786.95,147.979 787.836,147.009 788.723,146.669 789.61,146.072 790.496,145.672 791.383,146.265 792.269,146.597 793.156,146.761 794.043,147.005 794.929,146.732 795.816,147.274 796.702,146.218 797.589,146.554 798.476,146.756 799.362,146.935 800.249,147.324 801.135,147.703 802.022,146.796 802.909,146.611 803.795,146.61 804.682,146.445 805.568,145.873 806.455,144.938 807.342,145.448 808.228,144.462 809.115,143.747 810.001,144.323 810.888,144.017 811.775,144.432 812.661,143.885 813.548,144.151 814.434,144.682 815.321,144.958 816.208,144.91 817.094,143.819 817.981,143.143 818.867,142.115 819.754,142.706 820.641,142.742 821.527,143.199 822.414,143.278 823.3,142.989 824.187,143.026 825.074,143.059 825.96,143.383 826.847,142.591 827.733,142.54 828.62,141.841 829.507,140.727 830.393,141.34 831.28,140.347 832.166,140.511 833.053,140.69 833.94,140.75 834.826,141.132 835.713,140.161 836.599,140.771 837.486,140.594 838.373,140.01 839.259,140.342 840.146,140.375 841.032,139.259 841.919,138.528 842.806,138.63 843.692,138.557 844.579,137.968 845.465,137.509 846.352,137.887 847.239,136.946 848.125,136.993 849.012,136.903 849.898,137.446 850.785,137.994 851.672,138.286 852.558,137.694 853.445,138.313 854.331,138.831 855.218,138.507 856.105,138.513 856.991,138.158 857.878,138.203 858.764,137.62 859.651,137.494 860.538,137.775 861.424,138.156 862.311,137.121 863.197,136.853 864.084,137.074 864.971,137.27 865.857,136.234 866.744,135.704 867.63,135.822 868.517,135.108 869.404,134.145 870.29,134.369 871.177,134.306 872.063,133.923 872.95,133.68 873.837,133.431 874.723,133.897 875.61,134.508 876.496,134.07 877.383,133.843 878.27,133.74 879.156,132.797 880.043,132.318 880.929,132.742 881.816,133.218 882.703,132.333 883.589,132.428 884.476,132.251 885.362,132.094 886.249,131.987 887.136,132.251 888.022,131.832 888.909,131.197 889.795,131.286 890.682,131.399 891.569,131.957 892.455,132.29 893.342,132.03 894.228,131.963 895.115,131.379 896.002,131.645 896.888,131.652 897.775,131.692 898.661,130.745 899.548,130.589 900.435,130.942 901.321,130.339 902.208,130.13 903.094,130.01 903.981,130.688 904.868,130.702 905.754,130.748 906.641,130.036 907.527,129.762 908.414,129.125 909.301,128.558 910.187,127.923 911.074,127.292 911.96,127.091 912.847,126.617 913.734,127.537 914.62,127.735 915.507,128.139 916.393,127.779 917.28,127.786 918.167,127.367 919.053,127.255 919.94,126.862 920.826,127.1 921.713,126.986 922.6,126.49 923.486,126.017 924.373,125.792 925.259,126.247 926.146,126.422 927.033,126.513 927.919,126.07 928.806,126.003 929.692,125.485 930.579,125.318 931.466,124.908 932.352,124.609 933.239,125.423 934.125,125.231 935.012,124.601 935.899,123.877 936.785,123.429 937.672,122.867 938.558,123.185 939.445,123.337 940.332,123.537 941.218,124.338 942.105,123.905 942.991,123.781 943.878,124.261 944.765,124.589 945.651,124.226 946.538,124.788 947.424,124.24 948.311,124.407 949.198,124.457 950.084,123.683 950.971,123.584 951.857,122.972 952.744,122.918 953.631,123.689 954.517,124.342 955.404,124.399 956.29,124.058 957.177,124.605 958.064,123.913 958.95,124.411 959.837,124.068 960.723,124.646 961.61,124.932 962.497,124.074 963.383,123.179 964.27,122.742 965.156,121.797 966.043,120.923 966.93,121.258 967.816,121.753 968.703,121.702 969.589,120.937 970.476,120.878 971.363,120.759 972.249,121.08 973.136,120.383 974.022,119.894 974.909,119.851 975.796,119.42 976.682,118.807 977.569,119.179 978.455,119.28 979.342,119.796 980.229,120.091 981.115,120.518 982.002,120.963 982.888,120.705 983.775,120.671 984.661,121.329 985.548,120.866 986.435,120.095 987.321,119.244 988.208,119.698 989.095,119.055 989.981,119.072 990.868,118.956 991.754,118.918 992.641,118.721 993.528,118.676 994.414,119.324 995.301,119.671 996.187,119.358 997.074,119.113 997.961,118.73 998.847,118.488 999.734,117.912 1000.62,117.4 1001.51,117.73 1002.39,117.106 1003.28,116.617 1004.17,117.033 1005.05,116.977 1005.94,116.928 1006.83,117.572 1007.71,117.457 1008.6,117.027 1009.49,117.725 1010.37,117.987 1011.26,117.008 1012.15,117.315 1013.03,116.508 1013.92,115.987 1014.81,116.079 1015.69,116.848 1016.58,117.304 1017.47,117.219 1018.35,116.979 1019.24,116.471 1020.13,116.543 1021.01,116.803 1021.9,116.74 1022.79,116.782 1023.67,115.87 1024.56,115.222 1025.45,115.955 1026.33,116.084 1027.22,115.183 1028.1,115.266 1028.99,115.503 1029.88,115.812 1030.76,115.694 1031.65,115.524 1032.54,114.783 1033.42,114.68 1034.31,114.098 1035.2,114.561 1036.08,114.286 1036.97,113.813 1037.86,112.965 1038.74,112.735 1039.63,111.973 1040.52,111.656 1041.4,111.995 1042.29,112.002 1043.18,111.452 1044.06,111.879 1044.95,111.768 1045.84,112.554 1046.72,113.318 1047.61,113.671 1048.5,113.658 1049.38,113.842 1050.27,113.385 1051.16,113.37 1052.04,112.604 1052.93,112.021 1053.82,111.96 1054.7,111.316 1055.59,111.529 1056.48,111.98 1057.36,112.055 1058.25,111.499 1059.14,111.234 1060.02,111.194 1060.91,110.765 1061.8,110.973 1062.68,111.126 1063.57,110.967 1064.46,110.596 1065.34,111.085 1066.23,110.504 1067.12,111.068 1068,110.228 1068.89,109.742 1069.78,110.554 1070.66,110.261 1071.55,110.197 1072.43,110.402 1073.32,109.865 1074.21,110.237 1075.09,109.848 1075.98,110.223 1076.87,109.934 1077.75,109.939 1078.64,109.812 1079.53,110.452 1080.41,110.924 1081.3,111.114 1082.19,110.564 1083.07,110.597 1083.96,111.02 1084.85,110.087 1085.73,109.617 1086.62,110.18 1087.51,109.208 1088.39,108.344 1089.28,107.836 1090.17,108.497 1091.05,108.168 1091.94,107.451 1092.83,108.023 1093.71,107.518 1094.6,107.068"/>
<text fill="#000000" x="828" y="73.4776" font-size="11" text-anchor="middle" dy="0" font-family="Helvetica" font-weight="bold">Time domain response</text>
</g>
<clipPath id="cp001600900">
  <polygon points="0,900 1600,900 1600,0 0,0"/>
</clipPath>
<g clip-path="url(#cp001600900)">
<polygon fill="#ffffff" shape-rendering="crispEdges" points="1347.16,117.197 1445.75,117.197 1347.16,70.1742"/>
<polygon fill="#ffffff" shape-rendering="crispEdges" points="1445.75,117.197 1445.75,70.1742 1347.16,70.1742"/>
<polyline fill="none" stroke="#262626" stroke-width="0.5" stroke-linecap="butt" stroke-linejoin="miter" stroke-dasharray="16,0" points="1347.16,117.197 1445.75,117.197"/>
<polyline fill="none" stroke="#262626" stroke-width="0.5" stroke-linecap="butt" stroke-linejoin="miter" stroke-dasharray="16,0" points="1347.16,70.1742 1445.75,70.1742"/>
<polyline fill="none" stroke="#262626" stroke-width="0.5" stroke-linecap="butt" stroke-linejoin="miter" stroke-dasharray="16,0" points="1347.16,117.197 1347.16,70.1742"/>
<polyline fill="none" stroke="#262626" stroke-width="0.5" stroke-linecap="butt" stroke-linejoin="miter" stroke-dasharray="16,0" points="1445.75,117.197 1445.75,70.1742"/>
<text fill="#000000" x="1368.55" y="78.0112" font-size="10" text-anchor="start" dy="5" font-family="Helvetica">input</text>
<text fill="#000000" x="1368.55" y="93.6853" font-size="10" text-anchor="start" dy="5" font-family="Helvetica">moving average   </text>
<text fill="#000000" x="1368.55" y="109.359" font-size="10" text-anchor="start" dy="5" font-family="Helvetica">recoursive</text>
<polyline fill="none" stroke="#0071bc" stroke-width="0.5" stroke-linecap="butt" stroke-linejoin="miter" points="1349.41,78.0112 1366.3,78.0112"/>
<polyline fill="none" stroke="#d85218" stroke-width="0.5" stroke-linecap="butt" stroke-linejoin="miter" points="1349.41,93.6853 1366.3,93.6853"/>
<polyline fill="none" stroke="#ecb01f" stroke-width="0.5" stroke-linecap="butt" stroke-linejoin="miter" points="1349.41,109.359 1366.3,109.359"/>
</g>
<clipPath id="cp001600900">
  <polygon points="0,900 1600,900 1600,0 0,0"/>
</clipPath>
<g clip-path="url(#cp001600900)">
<polygon fill="#ffffff" shape-rendering="crispEdges" points="208,801 1448,801 208,503.25"/>
<polygon fill="#ffffff" shape-rendering="crispEdges" points="1448,801 1448,503.25 208,503.25"/>
<polyline fill="none" stroke="#262626" stroke-width="0.5" stroke-linecap="butt" stroke-linejoin="miter" points="208,801 208,788.61"/>
<polyline fill="none" stroke="#262626" stroke-width="0.5" stroke-linecap="butt" stroke-linejoin="miter" points="621.333,801 621.333,788.61"/>
<polyline fill="none" stroke="#262626" stroke-width="0.5" stroke-linecap="butt" stroke-linejoin="miter" points="1034.67,801 1034.67,788.61"/>
<polyline fill="none" stroke="#262626" stroke-width="0.5" stroke-linecap="butt" stroke-linejoin="miter" points="1448,801 1448,788.61"/>
<text fill="#262626" x="199.5" y="820.996" font-size="10" text-anchor="start" dy="0" font-family="Helvetica">10</text>
<text fill="#262626" x="211.5" y="814.996" font-size="8" text-anchor="start" dy="0" font-family="Helvetica">0</text>
<text fill="#262626" x="612.833" y="820.996" font-size="10" text-anchor="start" dy="0" font-family="Helvetica">10</text>
<text fill="#262626" x="624.833" y="814.996" font-size="8" text-anchor="start" dy="0" font-family="Helvetica">1</text>
<text fill="#262626" x="1026.17" y="820.996" font-size="10" text-anchor="start" dy="0" font-family="Helvetica">10</text>
<text fill="#262626" x="1038.17" y="814.996" font-size="8" text-anchor="start" dy="0" font-family="Helvetica">2</text>
<text fill="#262626" x="1439.5" y="820.996" font-size="10" text-anchor="start" dy="0" font-family="Helvetica">10</text>
<text fill="#262626" x="1451.5" y="814.996" font-size="8" text-anchor="start" dy="0" font-family="Helvetica">3</text>
<polyline fill="none" stroke="#262626" stroke-width="0.5" stroke-linecap="butt" stroke-linejoin="miter" points="208,801 220.4,801"/>
<polyline fill="none" stroke="#262626" stroke-width="0.5" stroke-linecap="butt" stroke-linejoin="miter" points="208,741.45 220.4,741.45"/>
<polyline fill="none" stroke="#262626" stroke-width="0.5" stroke-linecap="butt" stroke-linejoin="miter" points="208,681.9 220.4,681.9"/>
<polyline fill="none" stroke="#262626" stroke-width="0.5" stroke-linecap="butt" stroke-linejoin="miter" points="208,622.35 220.4,622.35"/>
<polyline fill="none" stroke="#262626" stroke-width="0.5" stroke-linecap="butt" stroke-linejoin="miter" points="208,562.8 220.4,562.8"/>
<polyline fill="none" stroke="#262626" stroke-width="0.5" stroke-linecap="butt" stroke-linejoin="miter" points="208,503.25 220.4,503.25"/>
<text fill="#262626" x="203" y="801" font-size="10" text-anchor="end" dy="5" font-family="Helvetica">0</text>
<text fill="#262626" x="203" y="741.45" font-size="10" text-anchor="end" dy="5" font-family="Helvetica">0.2</text>
<text fill="#262626" x="203" y="681.9" font-size="10" text-anchor="end" dy="5" font-family="Helvetica">0.4</text>
<text fill="#262626" x="203" y="622.35" font-size="10" text-anchor="end" dy="5" font-family="Helvetica">0.6</text>
<text fill="#262626" x="203" y="562.8" font-size="10" text-anchor="end" dy="5" font-family="Helvetica">0.8</text>
<text fill="#262626" x="203" y="503.25" font-size="10" text-anchor="end" dy="5" font-family="Helvetica">1</text>
<polyline fill="none" stroke="#262626" stroke-width="0.5" stroke-linecap="butt" stroke-linejoin="miter" stroke-dasharray="16,0" points="208,801 1448,801"/>
<polyline fill="none" stroke="#262626" stroke-width="0.5" stroke-linecap="butt" stroke-linejoin="miter" stroke-dasharray="16,0" points="208,801 208,503.25"/>
<text fill="#262626" x="828" y="822.996" font-size="11" text-anchor="middle" dy="11" font-family="Helvetica">frequency [Hz]</text>
<text fill="#262626" x="184" y="652.125" font-size="11" transform="rotate(-90, 184, 652.125)" text-anchor="middle" dy="0" font-family="Helvetica">amplitude</text>
<polyline fill="none" stroke="#0071bc" stroke-width="0.5" stroke-linecap="butt" stroke-linejoin="miter" points="206.76,503.345 207.821,503.345 332.246,503.631 405.031,504.107 456.672,504.773 496.728,505.627 529.456,506.67 557.128,507.899 581.098,509.313 602.241,510.911 621.154,512.691 638.263,514.651 653.882,516.788 668.25,519.101 681.554,521.586 693.938,524.241 705.523,527.062 716.406,530.047 726.667,533.192 736.372,536.493 745.58,539.948 754.338,543.551 762.689,547.299 770.668,551.188 778.308,555.213 785.636,559.37 792.676,563.654 799.451,568.06 805.979,572.583 812.278,577.219 818.364,581.963 824.25,586.808 829.949,591.75 835.473,596.783 840.832,601.901 846.035,607.1 851.092,612.373 856.011,617.715 860.798,623.119 865.461,628.581 870.005,634.094 874.438,639.652 878.764,645.249 882.987,650.879 887.114,656.537 891.148,662.217 895.094,667.911 898.954,673.616 902.734,679.324 906.435,685.029 910.062,690.727 913.616,696.41 917.102,702.074 920.521,707.712 923.877,713.319 927.17,718.89 930.405,724.418 933.582,729.899 936.704,735.327 939.773,740.697 942.79,746.004 945.757,751.243 948.676,756.409 951.548,761.498 954.375,766.504 957.158,771.423 959.899,776.252 962.598,780.985 965.258,785.618 967.878,790.149 970.461,794.573 973.007,798.886 975.518,798.915 977.994,794.832 980.436,790.87 982.846,787.031 985.224,783.318 987.57,779.732 989.886,776.277 992.173,772.955 994.431,769.767 996.661,766.716 998.864,763.802 1001.04,761.028 1003.19,758.394 1005.31,755.902 1007.41,753.552 1009.49,751.345 1011.54,749.281 1013.57,747.36 1015.57,745.583 1017.56,743.949 1019.52,742.458 1021.46,741.109 1023.38,739.903 1025.28,738.837 1027.16,737.911 1029.02,737.123 1030.86,736.472 1032.68,735.957 1034.49,735.575 1036.27,735.325 1038.04,735.205 1039.79,735.212 1041.53,735.345 1043.25,735.599 1044.95,735.974 1046.63,736.466 1048.3,737.071 1049.96,737.788 1051.6,738.612 1053.22,739.541 1054.83,740.571 1056.43,741.699 1058.01,742.921 1059.58,744.233 1061.13,745.631 1062.67,747.112 1064.2,748.672 1065.71,750.306 1067.22,752.011 1068.71,753.782 1070.18,755.616 1071.65,757.508 1073.1,759.454 1074.54,761.449 1075.97,763.49 1077.39,765.572 1078.8,767.69 1080.2,769.841 1081.58,772.021 1082.96,774.224 1084.32,776.446 1085.68,778.684 1087.02,780.933 1088.36,783.188 1089.68,785.447 1091,787.704 1092.3,789.956 1093.6,792.199 1094.89,794.429 1096.16,796.641 1097.43,798.833 1098.69,801 1099.94,798.861 1101.19,796.753 1102.42,794.681 1103.65,792.646 1104.86,790.654 1106.07,788.705 1107.27,786.804 1108.46,784.954 1109.65,783.157 1110.83,781.415 1112,779.732 1113.16,778.109 1114.31,776.55 1115.46,775.055 1116.6,773.627 1117.73,772.268 1118.86,770.979 1119.98,769.762 1121.09,768.619 1122.19,767.55 1123.29,766.557 1124.38,765.641 1125.47,764.802 1126.54,764.042 1127.62,763.36 1128.68,762.758 1129.74,762.235 1130.79,761.791 1131.84,761.427 1132.88,761.143 1133.91,760.938 1134.94,760.811 1135.97,760.763 1136.98,760.791 1137.99,760.897 1139,761.078 1140,761.333 1140.99,761.661 1141.98,762.062 1142.97,762.533 1143.95,763.073 1144.92,763.681 1145.89,764.354 1146.85,765.09 1147.81,765.889 1148.76,766.747 1149.71,767.662 1150.65,768.633 1151.59,769.657 1152.52,770.732 1153.45,771.854 1154.37,773.023 1155.29,774.234 1156.2,775.486 1157.11,776.775 1158.01,778.1 1158.91,779.457 1159.81,780.844 1160.7,782.257 1161.59,783.694 1162.47,785.152 1163.35,786.628 1164.22,788.119 1165.09,789.623 1165.95,791.135 1166.81,792.655 1167.67,794.178 1168.52,795.702 1169.37,797.223 1170.22,798.74 1171.06,800.249 1171.9,800.252 1172.73,798.767 1173.56,797.297 1174.38,795.846 1175.2,794.415 1176.02,793.008 1176.84,791.628 1177.65,790.275 1178.45,788.953 1179.26,787.664 1180.06,786.41 1180.85,785.193 1181.64,784.015 1182.43,782.879 1183.22,781.785 1184,780.735 1184.78,779.732 1185.56,778.777 1186.33,777.871 1187.1,777.015 1187.86,776.212 1188.62,775.461 1189.38,774.764 1190.14,774.122 1190.89,773.536 1191.64,773.007 1192.39,772.535 1193.13,772.12 1193.87,771.763 1194.61,771.465 1195.34,771.225 1196.07,771.043 1196.8,770.92 1197.53,770.856 1198.25,770.85 1198.97,770.901 1199.69,771.01 1200.4,771.175 1201.11,771.396 1201.82,771.673 1202.52,772.004 1203.23,772.389 1203.93,772.826 1204.62,773.315 1205.32,773.853 1206.01,774.441 1206.7,775.076 1207.39,775.756 1208.07,776.481 1208.75,777.249 1209.43,778.058 1210.1,778.907 1210.78,779.792 1211.45,780.714 1212.12,781.669 1212.78,782.656 1213.45,783.672 1214.11,784.716 1214.77,785.786 1215.42,786.878 1216.08,787.992 1216.73,789.125 1217.38,790.275 1218.03,791.439 1218.67,792.616 1219.31,793.802 1219.95,794.996 1220.59,796.195 1221.23,797.397 1221.86,798.601 1222.49,799.802 1223.12,801 1223.75,799.808 1224.37,798.624 1224.99,797.451 1225.61,796.29 1226.23,795.144 1226.85,794.015 1227.46,792.904 1228.07,791.815 1228.68,790.748 1229.29,789.706 1229.89,788.69 1230.5,787.702 1231.1,786.745 1231.7,785.819 1232.29,784.927 1232.89,784.069 1233.48,783.248 1234.07,782.464 1234.66,781.72 1235.25,781.016 1235.84,780.353 1236.42,779.732 1237,779.155 1237.58,778.622 1238.16,778.135 1238.74,777.693 1239.31,777.298 1239.88,776.95 1240.46,776.649 1241.02,776.397 1241.59,776.192 1242.16,776.036 1242.72,775.928 1243.28,775.869 1243.84,775.859 1244.4,775.896 1244.96,775.982 1245.51,776.115 1246.07,776.295 1246.62,776.522 1247.17,776.795 1247.72,777.113 1248.26,777.476 1248.81,777.883 1249.35,778.332 1249.89,778.823 1250.43,779.355 1250.97,779.927 1251.51,780.537 1252.04,781.184 1252.57,781.866 1253.11,782.583 1253.64,783.333 1254.17,784.114 1254.69,784.924 1255.22,785.763 1255.74,786.628 1256.26,787.518 1256.79,788.43 1257.31,789.364 1257.82,790.316 1258.34,791.287 1258.85,792.272 1259.37,793.271 1259.88,794.282 1260.39,795.303 1260.9,796.331 1261.41,797.365 1261.91,798.402 1262.42,799.442 1262.92,800.481 1263.43,800.482 1263.93,799.449 1264.43,798.422 1264.92,797.403 1265.42,796.394 1265.92,795.397 1266.41,794.413 1266.9,793.445 1267.39,792.494 1267.88,791.562 1268.37,790.65 1268.86,789.761 1269.34,788.896 1269.83,788.057 1270.31,787.245 1270.79,786.461 1271.27,785.707 1271.75,784.985 1272.23,784.295 1272.71,783.639 1273.18,783.018 1273.66,782.433 1274.13,781.885 1274.6,781.375 1275.07,780.904 1275.54,780.473 1276.01,780.082 1276.48,779.732 1276.94,779.424 1277.41,779.158 1277.87,778.934 1278.33,778.754 1278.79,778.616 1279.25,778.522 1279.71,778.471 1280.17,778.463 1280.63,778.498 1281.08,778.577 1281.53,778.698 1281.99,778.862 1282.44,779.069 1282.89,779.316 1283.34,779.605 1283.79,779.935 1284.23,780.304 1284.68,780.712 1285.12,781.158 1285.57,781.641 1286.01,782.161 1286.45,782.715 1286.89,783.304 1287.33,783.926 1287.77,784.579 1288.21,785.262 1288.64,785.975 1289.08,786.715 1289.51,787.481 1289.95,788.271 1290.38,789.085 1290.81,789.92 1291.24,790.776 1291.67,791.649 1292.1,792.539 1292.52,793.443 1292.95,794.361 1293.37,795.29 1293.8,796.228 1294.22,797.174 1294.64,798.126 1295.06,799.083 1295.48,800.041 1295.9,801 1296.32,800.042 1296.74,799.088 1297.15,798.139 1297.57,797.196 1297.98,796.262 1298.4,795.339 1298.81,794.427 1299.22,793.529 1299.63,792.647 1300.04,791.782 1300.45,790.935 1300.86,790.109 1301.26,789.305 1301.67,788.524 1302.07,787.768 1302.48,787.039 1302.88,786.337 1303.28,785.663 1303.68,785.02 1304.08,784.408 1304.48,783.829 1304.88,783.284 1305.28,782.772 1305.67,782.297 1306.07,781.857 1306.47,781.455 1306.86,781.091 1307.25,780.765 1307.64,780.478 1308.04,780.231 1308.43,780.024 1308.82,779.858 1309.21,779.732 1309.59,779.647 1309.98,779.603 1310.37,779.601 1310.75,779.639 1311.14,779.718 1311.52,779.839 1311.91,779.999 1312.29,780.2 1312.67,780.441 1313.05,780.721 1313.43,781.04 1313.81,781.397 1314.19,781.791 1314.56,782.222 1314.94,782.689 1315.32,783.191 1315.69,783.727 1316.07,784.296 1316.44,784.897 1316.81,785.528 1317.19,786.189 1317.56,786.878 1317.93,787.594 1318.3,788.335 1318.67,789.101 1319.03,789.889 1319.4,790.698 1319.77,791.527 1320.13,792.374 1320.5,793.238 1320.86,794.116 1321.23,795.007 1321.59,795.91 1321.95,796.822 1322.31,797.742 1322.68,798.668 1323.04,799.599"/>
<polyline fill="none" stroke="#d85218" stroke-width="0.5" stroke-linecap="butt" stroke-linejoin="miter" points="206.76,503.681 207.821,503.681 332.246,504.962 405.031,507.062 456.672,509.927 496.728,513.491 529.456,517.673 557.128,522.388 581.098,527.546 602.241,533.058 621.154,538.841 638.263,544.815 653.882,550.911 668.25,557.066 681.554,563.228 693.938,569.351 705.523,575.399 716.406,581.343 726.667,587.159 736.372,592.83 745.58,598.344 754.338,603.691 762.689,608.867 770.668,613.868 778.308,618.695 785.636,623.348 792.676,627.83 799.451,632.145 805.979,636.296 812.278,640.29 818.364,644.131 824.25,647.825 829.949,651.377 835.473,654.793 840.832,658.079 846.035,661.24 851.092,664.283 856.011,667.211 860.798,670.03 865.461,672.745 870.005,675.362 874.438,677.883 878.764,680.314 882.987,682.659 887.114,684.922 891.148,687.107 895.094,689.216 898.954,691.254 902.734,693.223 906.435,695.128 910.062,696.969 913.616,698.752 917.102,700.477 920.521,702.148 923.877,703.766 927.17,705.335 930.405,706.855 933.582,708.33 936.704,709.761 939.773,711.15 942.79,712.498 945.757,713.808 948.676,715.081 951.548,716.317 954.375,717.52 957.158,718.689 959.899,719.827 962.598,720.934 965.258,722.011 967.878,723.061 970.461,724.083 973.007,725.079 975.518,726.05 977.994,726.996 980.436,727.919 982.846,728.819 985.224,729.697 987.57,730.554 989.886,731.391 992.173,732.208 994.431,733.006 996.661,733.785 998.864,734.547 1001.04,735.292 1003.19,736.019 1005.31,736.731 1007.41,737.427 1009.49,738.108 1011.54,738.774 1013.57,739.426 1015.57,740.064 1017.56,740.689 1019.52,741.3 1021.46,741.9 1023.38,742.487 1025.28,743.062 1027.16,743.625 1029.02,744.178 1030.86,744.719 1032.68,745.25 1034.49,745.771 1036.27,746.281 1038.04,746.783 1039.79,747.274 1041.53,747.756 1043.25,748.23 1044.95,748.695 1046.63,749.151 1048.3,749.599 1049.96,750.039 1051.6,750.471 1053.22,750.895 1054.83,751.312 1056.43,751.722 1058.01,752.125 1059.58,752.521 1061.13,752.91 1062.67,753.292 1064.2,753.668 1065.71,754.038 1067.22,754.402 1068.71,754.76 1070.18,755.112 1071.65,755.458 1073.1,755.799 1074.54,756.134 1075.97,756.464 1077.39,756.789 1078.8,757.108 1080.2,757.423 1081.58,757.733 1082.96,758.038 1084.32,758.339 1085.68,758.635 1087.02,758.926 1088.36,759.213 1089.68,759.496 1091,759.775 1092.3,760.05 1093.6,760.32 1094.89,760.587 1096.16,760.85 1097.43,761.109 1098.69,761.365 1099.94,761.617 1101.19,761.865 1102.42,762.11 1103.65,762.352 1104.86,762.59 1106.07,762.825 1107.27,763.057 1108.46,763.285 1109.65,763.511 1110.83,763.734 1112,763.953 1113.16,764.17 1114.31,764.384 1115.46,764.595 1116.6,764.803 1117.73,765.008 1118.86,765.211 1119.98,765.412 1121.09,765.609 1122.19,765.805 1123.29,765.997 1124.38,766.188 1125.47,766.376 1126.54,766.561 1127.62,766.745 1128.68,766.926 1129.74,767.105 1130.79,767.281 1131.84,767.456 1132.88,767.628 1133.91,767.799 1134.94,767.967 1135.97,768.133 1136.98,768.298 1137.99,768.46 1139,768.62 1140,768.779 1140.99,768.936 1141.98,769.091 1142.97,769.244 1143.95,769.395 1144.92,769.545 1145.89,769.693 1146.85,769.839 1147.81,769.984 1148.76,770.127 1149.71,770.268 1150.65,770.408 1151.59,770.546 1152.52,770.683 1153.45,770.818 1154.37,770.952 1155.29,771.084 1156.2,771.215 1157.11,771.344 1158.01,771.472 1158.91,771.599 1159.81,771.724 1160.7,771.848 1161.59,771.971 1162.47,772.092 1163.35,772.212 1164.22,772.331 1165.09,772.448 1165.95,772.564 1166.81,772.68 1167.67,772.793 1168.52,772.906 1169.37,773.018 1170.22,773.128 1171.06,773.237 1171.9,773.345 1172.73,773.452 1173.56,773.558 1174.38,773.663 1175.2,773.767 1176.02,773.87 1176.84,773.971 1177.65,774.072 1178.45,774.172 1179.26,774.27 1180.06,774.368 1180.85,774.465 1181.64,774.56 1182.43,774.655 1183.22,774.749 1184,774.842 1184.78,774.934 1185.56,775.026 1186.33,775.116 1187.1,775.205 1187.86,775.294 1188.62,775.381 1189.38,775.468 1190.14,775.554 1190.89,775.64 1191.64,775.724 1192.39,775.808 1193.13,775.89 1193.87,775.972 1194.61,776.054 1195.34,776.134 1196.07,776.214 1196.8,776.293 1197.53,776.371 1198.25,776.448 1198.97,776.525 1199.69,776.601 1200.4,776.677 1201.11,776.751 1201.82,776.825 1202.52,776.899 1203.23,776.971 1203.93,777.043 1204.62,777.114 1205.32,777.185 1206.01,777.255 1206.7,777.324 1207.39,777.393 1208.07,777.461 1208.75,777.529 1209.43,777.595 1210.1,777.662 1210.78,777.727 1211.45,777.792 1212.12,777.857 1212.78,777.921 1213.45,777.984 1214.11,778.047 1214.77,778.109 1215.42,778.17 1216.08,778.231 1216.73,778.292 1217.38,778.352 1218.03,778.411 1218.67,778.47 1219.31,778.529 1219.95,778.586 1220.59,778.644 1221.23,778.701 1221.86,778.757 1222.49,778.813 1223.12,778.868 1223.75,778.923 1224.37,778.977 1224.99,779.031 1225.61,779.085 1226.23,779.138 1226.85,779.19 1227.46,779.242 1228.07,779.294 1228.68,779.345 1229.29,779.395 1229.89,779.445 1230.5,779.495 1231.1,779.544 1231.7,779.593 1232.29,779.642 1232.89,779.69 1233.48,779.737 1234.07,779.785 1234.66,779.831 1235.25,779.878 1235.84,779.924 1236.42,779.969 1237,780.014 1237.58,780.059 1238.16,780.103 1238.74,780.147 1239.31,780.191 1239.88,780.234 1240.46,780.277 1241.02,780.319 1241.59,780.361 1242.16,780.403 1242.72,780.444 1243.28,780.485 1243.84,780.526 1244.4,780.566 1244.96,780.606 1245.51,780.645 1246.07,780.685 1246.62,780.723 1247.17,780.762 1247.72,780.8 1248.26,780.838 1248.81,780.875 1249.35,780.912 1249.89,780.949 1250.43,780.985 1250.97,781.022 1251.51,781.057 1252.04,781.093 1252.57,781.128 1253.11,781.163 1253.64,781.197 1254.17,781.231 1254.69,781.265 1255.22,781.299 1255.74,781.332 1256.26,781.365 1256.79,781.398 1257.31,781.43 1257.82,781.462 1258.34,781.494 1258.85,781.526 1259.37,781.557 1259.88,781.588 1260.39,781.618 1260.9,781.649 1261.41,781.679 1261.91,781.708 1262.42,781.738 1262.92,781.767 1263.43,781.796 1263.93,781.825 1264.43,781.853 1264.92,781.881 1265.42,781.909 1265.92,781.937 1266.41,781.964 1266.9,781.991 1267.39,782.018 1267.88,782.044 1268.37,782.07 1268.86,782.096 1269.34,782.122 1269.83,782.148 1270.31,782.173 1270.79,782.198 1271.27,782.223 1271.75,782.247 1272.23,782.271 1272.71,782.295 1273.18,782.319 1273.66,782.343 1274.13,782.366 1274.6,782.389 1275.07,782.412 1275.54,782.434 1276.01,782.457 1276.48,782.479 1276.94,782.5 1277.41,782.522 1277.87,782.543 1278.33,782.565 1278.79,782.586 1279.25,782.606 1279.71,782.627 1280.17,782.647 1280.63,782.667 1281.08,782.687 1281.53,782.706 1281.99,782.726 1282.44,782.745 1282.89,782.764 1283.34,782.782 1283.79,782.801 1284.23,782.819 1284.68,782.837 1285.12,782.855 1285.57,782.873 1286.01,782.89 1286.45,782.907 1286.89,782.924 1287.33,782.941 1287.77,782.958 1288.21,782.974 1288.64,782.99 1289.08,783.006 1289.51,783.022 1289.95,783.037 1290.38,783.053 1290.81,783.068 1291.24,783.083 1291.67,783.098 1292.1,783.112 1292.52,783.126 1292.95,783.141 1293.37,783.155 1293.8,783.168 1294.22,783.182 1294.64,783.195 1295.06,783.208 1295.48,783.221 1295.9,783.234 1296.32,783.247 1296.74,783.259 1297.15,783.271 1297.57,783.283 1297.98,783.295 1298.4,783.307 1298.81,783.318 1299.22,783.329 1299.63,783.341 1300.04,783.351 1300.45,783.362 1300.86,783.373 1301.26,783.383 1301.67,783.393 1302.07,783.403 1302.48,783.413 1302.88,783.422 1303.28,783.432 1303.68,783.441 1304.08,783.45 1304.48,783.459 1304.88,783.468 1305.28,783.476 1305.67,783.484 1306.07,783.493 1306.47,783.5 1306.86,783.508 1307.25,783.516 1307.64,783.523 1308.04,783.531 1308.43,783.538 1308.82,783.544 1309.21,783.551 1309.59,783.558 1309.98,783.564 1310.37,783.57 1310.75,783.576 1311.14,783.582 1311.52,783.588 1311.91,783.593 1312.29,783.599 1312.67,783.604 1313.05,783.609 1313.43,783.614 1313.81,783.618 1314.19,783.623 1314.56,783.627 1314.94,783.631 1315.32,783.635 1315.69,783.639 1316.07,783.642 1316.44,783.646 1316.81,783.649 1317.19,783.652 1317.56,783.655 1317.93,783.658 1318.3,783.66 1318.67,783.662 1319.03,783.665 1319.4,783.667 1319.77,783.669 1320.13,783.67 1320.5,783.672 1320.86,783.673 1321.23,783.674 1321.59,783.675 1321.95,783.676 1322.31,783.677 1322.68,783.677 1323.04,783.678"/>
<text fill="#000000" x="828" y="493.25" font-size="11" text-anchor="middle" dy="0" font-family="Helvetica" font-weight="bold">Frequency response</text>
</g>
<clipPath id="cp001600900">
  <polygon points="0,900 1600,900 1600,0 0,0"/>
</clipPath>
<g clip-path="url(#cp001600900)">
<polygon fill="#ffffff" shape-rendering="crispEdges" points="1334.52,523.272 1445.75,523.272 1334.52,491.924"/>
<polygon fill="#ffffff" shape-rendering="crispEdges" points="1445.75,523.272 1445.75,491.924 1334.52,491.924"/>
<polyline fill="none" stroke="#262626" stroke-width="0.5" stroke-linecap="butt" stroke-linejoin="miter" stroke-dasharray="16,0" points="1334.52,523.272 1445.75,523.272"/>
<polyline fill="none" stroke="#262626" stroke-width="0.5" stroke-linecap="butt" stroke-linejoin="miter" stroke-dasharray="16,0" points="1334.52,491.924 1445.75,491.924"/>
<polyline fill="none" stroke="#262626" stroke-width="0.5" stroke-linecap="butt" stroke-linejoin="miter" stroke-dasharray="16,0" points="1334.52,523.272 1334.52,491.924"/>
<polyline fill="none" stroke="#262626" stroke-width="0.5" stroke-linecap="butt" stroke-linejoin="miter" stroke-dasharray="16,0" points="1445.75,523.272 1445.75,491.924"/>
<text fill="#000000" x="1355.92" y="499.761" font-size="10" text-anchor="start" dy="5" font-family="Helvetica">move avg</text>
<text fill="#000000" x="1355.92" y="515.435" font-size="10" text-anchor="start" dy="5" font-family="Helvetica">recoursive average   </text>
<polyline fill="none" stroke="#0071bc" stroke-width="0.5" stroke-linecap="butt" stroke-linejoin="miter" points="1336.78,499.761 1353.67,499.761"/>
<polyline fill="none" stroke="#d85218" stroke-width="0.5" stroke-linecap="butt" stroke-linejoin="miter" points="1336.78,515.435 1353.67,515.435"/>
</g>
</g>
</svg>
