<?xml version="1.0" encoding="UTF-8" standalone="no"?>
<svg xmlns="http://www.w3.org/2000/svg"
     xmlns:xlink="http://www.w3.org/1999/xlink"
     width="1600px" height="900px" viewBox="0 0 1600 900">
<title>gl2ps_renderer figure</title>
<desc>
Creator: GL2PS 1.4.0, (C) 1999-2017 C. Geuzaine
For: Octave
CreationDate: Fri Feb 14 13:31:53 2020
</desc>
<defs>
</defs>
<polygon fill="#ffffff" points="0,0 1600,0 1600,900 0,900"/>
<g>
<polygon fill="#ffffff" points="0,900 1600,900 1600,0 0,0" shape-rendering="crispEdges"/>
<clipPath id="cp001600900">
  <polygon points="0,900 1600,900 1600,0 0,0"/>
</clipPath>
<g clip-path="url(#cp001600900)">
<polygon fill="#ffffff" shape-rendering="crispEdges" points="208,801 1448,801 208,67.5"/>
<polygon fill="#ffffff" shape-rendering="crispEdges" points="1448,801 1448,67.5 208,67.5"/>
<polyline fill="none" stroke="#262626" stroke-width="0.5" stroke-linecap="butt" stroke-linejoin="miter" points="208,801 208,788.608"/>
<polyline fill="none" stroke="#262626" stroke-width="0.5" stroke-linecap="butt" stroke-linejoin="miter" points="456,801 456,788.608"/>
<polyline fill="none" stroke="#262626" stroke-width="0.5" stroke-linecap="butt" stroke-linejoin="miter" points="704,801 704,788.608"/>
<polyline fill="none" stroke="#262626" stroke-width="0.5" stroke-linecap="butt" stroke-linejoin="miter" points="952,801 952,788.608"/>
<polyline fill="none" stroke="#262626" stroke-width="0.5" stroke-linecap="butt" stroke-linejoin="miter" points="1200,801 1200,788.608"/>
<polyline fill="none" stroke="#262626" stroke-width="0.5" stroke-linecap="butt" stroke-linejoin="miter" points="1448,801 1448,788.608"/>
<text fill="#262626" x="208" y="805.997" font-size="10" text-anchor="middle" dy="10" font-family="Helvetica">0</text>
<text fill="#262626" x="456" y="805.997" font-size="10" text-anchor="middle" dy="10" font-family="Helvetica">200</text>
<text fill="#262626" x="704" y="805.997" font-size="10" text-anchor="middle" dy="10" font-family="Helvetica">400</text>
<text fill="#262626" x="952" y="805.997" font-size="10" text-anchor="middle" dy="10" font-family="Helvetica">600</text>
<text fill="#262626" x="1200" y="805.997" font-size="10" text-anchor="middle" dy="10" font-family="Helvetica">800</text>
<text fill="#262626" x="1448" y="805.997" font-size="10" text-anchor="middle" dy="10" font-family="Helvetica">1000</text>
<polyline fill="none" stroke="#262626" stroke-width="0.5" stroke-linecap="butt" stroke-linejoin="miter" points="208,801 220.4,801"/>
<polyline fill="none" stroke="#262626" stroke-width="0.5" stroke-linecap="butt" stroke-linejoin="miter" points="208,678.75 220.4,678.75"/>
<polyline fill="none" stroke="#262626" stroke-width="0.5" stroke-linecap="butt" stroke-linejoin="miter" points="208,556.5 220.4,556.5"/>
<polyline fill="none" stroke="#262626" stroke-width="0.5" stroke-linecap="butt" stroke-linejoin="miter" points="208,434.25 220.4,434.25"/>
<polyline fill="none" stroke="#262626" stroke-width="0.5" stroke-linecap="butt" stroke-linejoin="miter" points="208,312 220.4,312"/>
<polyline fill="none" stroke="#262626" stroke-width="0.5" stroke-linecap="butt" stroke-linejoin="miter" points="208,189.75 220.4,189.75"/>
<polyline fill="none" stroke="#262626" stroke-width="0.5" stroke-linecap="butt" stroke-linejoin="miter" points="208,67.5 220.4,67.5"/>
<text fill="#262626" x="203" y="801" font-size="10" text-anchor="end" dy="5" font-family="Helvetica">0</text>
<text fill="#262626" x="203" y="678.75" font-size="10" text-anchor="end" dy="5" font-family="Helvetica">200</text>
<text fill="#262626" x="203" y="556.5" font-size="10" text-anchor="end" dy="5" font-family="Helvetica">400</text>
<text fill="#262626" x="203" y="434.25" font-size="10" text-anchor="end" dy="5" font-family="Helvetica">600</text>
<text fill="#262626" x="203" y="312" font-size="10" text-anchor="end" dy="5" font-family="Helvetica">800</text>
<text fill="#262626" x="203" y="189.75" font-size="10" text-anchor="end" dy="5" font-family="Helvetica">1000</text>
<text fill="#262626" x="203" y="67.5" font-size="10" text-anchor="end" dy="5" font-family="Helvetica">1200</text>
<polyline fill="none" stroke="#262626" stroke-width="0.5" stroke-linecap="butt" stroke-linejoin="miter" stroke-dasharray="16,0" points="208,801 1448,801"/>
<polyline fill="none" stroke="#262626" stroke-width="0.5" stroke-linecap="butt" stroke-linejoin="miter" stroke-dasharray="16,0" points="208,801 208,67.5"/>
<text fill="#262626" x="828" y="818.997" font-size="11" text-anchor="middle" dy="11" font-family="Helvetica">time [ms]</text>
<text fill="#262626" x="175" y="434.25" font-size="11" transform="rotate(-90, 175, 434.25)" text-anchor="middle" dy="0" font-family="Helvetica">amplitude</text>
<polyline fill="none" stroke="#0071bc" stroke-width="0.5" stroke-linecap="butt" stroke-linejoin="miter" points="208,729.041 209.24,742.422 210.48,736.252 211.72,718.971 212.96,739.43 214.2,725.056 215.44,711.285 216.68,729.756 217.92,734.646 219.16,716.626 220.4,733.256 221.64,728.586 222.88,719.67 224.12,719.043 225.36,702.864 226.6,695.401 227.84,709.47 229.08,718.463 230.32,717.647 231.56,700.641 232.8,684.842 234.04,684.279 235.28,696.807 236.52,702.026 237.76,702.581 239,694.891 240.24,690.09 241.48,693.927 242.72,692.433 243.96,675.622 245.2,692.364 246.44,678.335 247.68,668.547 248.92,691.578 250.16,664.333 251.4,671.858 252.64,674.411 253.88,658.869 255.12,676.067 256.36,670.779 257.6,656.192 258.84,671.176 260.08,657.646 261.32,660.392 262.56,667.867 263.8,648.123 265.04,658.382 266.28,657.378 267.52,642.592 268.76,650.651 270,665.495 271.24,653.805 272.48,636.392 273.72,661.598 274.96,651.188 276.2,646.031 277.44,631.861 278.68,631.768 279.92,635.838 281.16,636.911 282.4,636.045 283.64,647.855 284.88,623.445 286.12,638.066 287.36,624.21 288.6,618.595 289.84,625.397 291.08,626.946 292.32,625.058 293.56,628.97 294.8,631.445 296.04,620.647 297.28,635.847 298.52,615.668 299.76,612.003 301,616.939 302.24,631.992 303.48,618.834 304.72,605.723 305.96,617.603 307.2,615.884 308.44,616.221 309.68,611.771 310.92,607.776 312.16,622.324 313.4,610.088 314.64,607.819 315.88,616.455 317.12,598.871 318.36,597.82 319.6,596.783 320.84,610.606 322.08,603.024 323.32,590.342 324.56,590.543 325.8,603.399 327.04,605.115 328.28,585.044 329.52,586.622 330.76,609.401 332,590.002 333.24,604.238 334.48,576.912 335.72,586.957 336.96,599.502 338.2,581.083 339.44,577.016 340.68,598.252 341.92,593.625 343.16,569.454 344.4,577.207 345.64,583.479 346.88,581.368 348.12,576.703 349.36,589.454 350.6,573.374 351.84,571.208 353.08,573.828 354.32,585.841 355.56,589.68 356.8,575.922 358.04,583.061 359.28,579.001 360.52,563.144 361.76,574.863 363,555.537 364.24,557.457 365.48,552.883 366.72,552.854 367.96,565.206 369.2,549.171 370.44,564.418 371.68,561.704 372.92,562.657 374.16,569.741 375.4,565.591 376.64,568.636 377.88,545.573 379.12,546.035 380.36,558.496 381.6,549.027 382.84,549.056 384.08,553.579 385.32,540.334 386.56,537.132 387.8,567.028 389.04,556.315 390.28,557.831 391.52,556.098 392.76,552.246 394,553.849 395.24,553.235 396.48,539.346 397.72,534.024 398.96,536.757 400.2,531.632 401.44,552.522 402.68,547.349 403.92,550.96 405.16,542.679 406.4,539.827 407.64,534.665 408.88,533.817 410.12,533.607 411.36,529.788 412.6,550.442 413.84,539.317 415.08,533.699 416.32,517.281 417.56,524.124 418.8,537.702 420.04,516.883 421.28,536.961 422.52,523.008 423.76,531.159 425,524.431 426.24,531.539 427.48,541.311 428.72,525.111 429.96,519.953 431.2,517.615 432.44,532.125 433.68,521.309 434.92,533.512 436.16,516.303 437.4,525.1 438.64,533.728 439.88,504.653 441.12,517.8 442.36,521.578 443.6,510.438 444.84,503.953 446.08,516.675 447.32,508.714 448.56,511.493 449.8,502.409 451.04,508.696 452.28,498.523 453.52,503.952 454.76,503.061 456,517.662 457.24,503.183 458.48,517.464 459.72,522.789 460.96,510.381 462.2,514.882 463.44,498.723 464.68,510.424 465.92,498.756 467.16,508.797 468.4,501.637 469.64,491.127 470.88,491.732 472.12,511.214 473.36,488.668 474.6,490.455 475.84,488.146 477.08,506.971 478.32,484.078 479.56,502.202 480.8,490.71 482.04,491.606 483.28,493.212 484.52,501.054 485.76,498.729 487,497.672 488.24,484.74 489.48,502.017 490.72,502.032 491.96,500.405 493.2,494.747 494.44,484.416 495.68,500.93 496.92,476.795 498.16,498.939 499.4,489.496 500.64,494.492 501.88,469.46 503.12,482.709 504.36,483.848 505.6,476.012 506.84,492.252 508.08,474.341 509.32,470.958 510.56,465.956 511.8,472.986 513.04,483.162 514.28,471.043 515.52,484.241 516.76,492.043 518,470.698 519.24,487.421 520.48,490.788 521.72,489.51 522.96,463.717 524.2,467.359 525.44,471.262 526.68,487.04 527.92,460.869 529.16,482.615 530.4,473.839 531.64,456.29 532.88,469.312 534.12,470.234 535.36,483.345 536.6,471.304 537.84,465.782 539.08,476.463 540.32,464.48 541.56,470.246 542.8,469.8 544.04,450.446 545.28,456.37 546.52,456.258 547.76,451.916 549,474.455 550.24,464.245 551.48,461.68 552.72,466.846 553.96,449.53 555.2,466.931 556.44,454.976 557.68,469.489 558.92,464.12 560.16,451.457 561.4,451.411 562.64,452.423 563.88,469.664 565.12,448.273 566.36,467.894 567.6,456.074 568.84,461.251 570.08,467 571.32,466.519 572.56,465.458 573.8,445.624 575.04,439.265 576.28,453.445 577.52,444.683 578.76,437.596 580,437.827 581.24,455.334 582.48,447.432 583.72,434.985 584.96,446.366 586.2,439.276 587.44,461.72 588.68,434.202 589.92,457.053 591.16,434.584 592.4,458.546 593.64,449.147 594.88,454.628 596.12,453.685 597.36,446.309 598.6,450.038 599.84,436.209 601.08,448.174 602.32,445.248 603.56,431.986 604.8,440.476 606.04,453.564 607.28,439.194 608.52,450.534 609.76,423.848 611,435.229 612.24,449.902 613.48,430.913 614.72,426.119 615.96,446.701 617.2,421.105 618.44,431.815 619.68,440.733 620.92,417.704 622.16,441.907 623.4,427.044 624.64,424.087 625.88,415.442 627.12,422.665 628.36,433.112 629.6,437.588 630.84,414.964 632.08,427.577 633.32,438.495 634.56,442.471 635.8,426.312 637.04,440.958 638.28,432.535 639.52,429.987 640.76,413.897 642,423.007 643.24,430.976 644.48,438.571 645.72,424.406 646.96,434.178 648.2,418.884 649.44,411.544 650.68,408.631 651.92,408.711 653.16,426.268 654.4,411.097 655.64,404.348 656.88,425.471 658.12,415.513 659.36,427.47 660.6,409.472 661.84,428.517 663.08,415.022 664.32,414.704 665.56,401.287 666.8,409.935 668.04,428.354 669.28,424.558 670.52,413.225 671.76,408.241 673,418.672 674.24,414.436 675.48,410.243 676.72,422.171 677.96,420.277 679.2,402.79 680.44,404.721 681.68,420.078 682.92,407.398 684.16,422.802 685.4,421.607 686.64,422.639 687.88,404.883 689.12,396.379 690.36,401.743 691.6,403.615 692.84,415.045 694.08,412.663 695.32,399.999 696.56,418.533 697.8,409.64 699.04,411.755 700.28,394.179 701.52,398.763 702.76,413.329 704,412.107 705.24,414.208 706.48,409.91 707.72,388.804 708.96,391.043 710.2,414.579 711.44,408.155 712.68,386.706 713.92,399.906 715.16,389.672 716.4,407.044 717.64,391.734 718.88,386.432 720.12,392.522 721.36,395.59 722.6,390.504 723.84,407.643 725.08,395.721 726.32,408.487 727.56,381.83 728.8,406.078 730.04,391.356 731.28,387.154 732.52,397.921 733.76,402.007 735,378.791 736.24,401.653 737.48,404.702 738.72,384.921 739.96,388.808 741.2,387.944 742.44,397.314 743.68,398.176 744.92,377.708 746.16,384.457 747.4,374.82 748.64,382.094 749.88,391.696 751.12,385.793 752.36,386.216 753.6,380.177 754.84,390.007 756.08,399.439 757.32,373.103 758.56,386.16 759.8,379.978 761.04,399.493 762.28,382.053 763.52,388.23 764.76,395.873 766,380.209 767.24,385.277 768.48,387.493 769.72,378.203 770.96,371.546 772.2,381.343 773.44,366.51 774.68,382.846 775.92,394.551 777.16,381.52 778.4,374.636 779.64,388.014 780.88,370.801 782.12,377.777 783.36,379.943 784.6,364.436 785.84,381.867 787.08,379.121 788.32,363.269 789.56,380.888 790.8,377.426 792.04,373.267 793.28,386.786 794.52,366.843 795.76,379.251 797,365.772 798.24,370.402 799.48,386.304 800.72,366.632 801.96,365.115 803.2,364.569 804.44,370.439 805.68,366.703 806.92,355.783 808.16,381.406 809.4,384.765 810.64,361.932 811.88,362.616 813.12,383.172 814.36,361.696 815.6,361.431 816.84,353.513 818.08,367.69 819.32,369.42 820.56,360.496 821.8,377.284 823.04,376.184 824.28,375.442 825.52,366.445 826.76,373.348 828,375.365 829.24,349.681 830.48,375.949 831.72,348.66 832.96,357.337 834.2,358.125 835.44,357.835 836.68,353.304 837.92,348.597 839.16,358.106 840.4,374.179 841.64,349.039 842.88,361.155 844.12,371.709 845.36,346.275 846.6,357.045 847.84,363.221 849.08,360.029 850.32,368.251 851.56,350.159 852.8,342.52 854.04,346.528 855.28,353.634 856.52,354.753 857.76,359.25 859,370.556 860.24,348.45 861.48,364.645 862.72,354.305 863.96,365.722 865.2,352.173 866.44,364.813 867.68,369.222 868.92,365.774 870.16,364.174 871.4,343.452 872.64,351.132 873.88,339.566 875.12,345.139 876.36,353.376 877.6,341.001 878.84,349.157 880.08,342.711 881.32,358.591 882.56,360.716 883.8,335.525 885.04,361.545 886.28,362.414 887.52,347.093 888.76,363.516 890,332.464 891.24,349.858 892.48,361.675 893.72,360.736 894.96,345.571 896.2,348.726 897.44,346.639 898.68,338.216 899.92,340.397 901.16,333.741 902.4,354.768 903.64,348.794 904.88,345.993 906.12,337.193 907.36,331.123 908.6,345.743 909.84,334.93 911.08,339.243 912.32,342.456 913.56,330.288 914.8,348.793 916.04,335.025 917.28,331.749 918.52,348.706 919.76,336.259 921,337.966 922.24,351.102 923.48,332.803 924.72,345.87 925.96,352.383 927.2,325.047 928.44,336.039 929.68,339.759 930.92,339.326 932.16,343.576 933.4,322.186 934.64,345.794 935.88,347.633 937.12,331.361 938.36,327.654 939.6,349.987 940.84,339.824 942.08,340.301 943.32,346.148 944.56,335.99 945.8,328.314 947.04,329.889 948.28,331.765 949.52,334.801 950.76,337.407 952,326.431 953.24,321.652 954.48,335.194 955.72,331.768 956.96,346.499 958.2,342.25 959.44,315.468 960.68,316.266 961.92,339.823 963.16,324.358 964.4,331.104 965.64,335.106 966.88,340.496 968.12,328.353 969.36,319.943 970.6,313.208 971.84,313.959 973.08,335.261 974.32,340.925 975.56,329.959 976.8,328.61 978.04,331.954 979.28,337.003 980.52,313.066 981.76,337.076 983,317.137 984.24,332.943 985.48,326.68 986.72,328.903 987.96,326.258 989.2,337.105 990.44,328.811 991.68,329.19 992.92,325.553 994.16,335.97 995.4,324.442 996.64,309.103 997.88,330.711 999.12,333.474 1000.36,312.511 1001.6,306.324 1002.84,333.677 1004.08,334.981 1005.32,316.681 1006.56,313.78 1007.8,309.363 1009.04,331.236 1010.28,324.22 1011.52,306.453 1012.76,327.32 1014,319.544 1015.24,316.804 1016.48,302.857 1017.72,331.449 1018.96,306.301 1020.2,309.182 1021.44,312.512 1022.68,312.308 1023.92,320.502 1025.16,326.847 1026.4,314.696 1027.64,308.249 1028.88,317.752 1030.12,305.599 1031.36,312.611 1032.6,328.115 1033.84,325.96 1035.08,308.367 1036.32,310.48 1037.56,311.18 1038.8,300.835 1040.04,327.36 1041.28,326.621 1042.52,308.156 1043.76,320.294 1045,296.689 1046.24,299.396 1047.48,304.278 1048.72,325.85 1049.96,312.942 1051.2,302.328 1052.44,298.489 1053.68,300.086 1054.92,313.116 1056.16,299.607 1057.4,309.873 1058.64,297.974 1059.88,304.044 1061.12,303.089 1062.36,299.478 1063.6,299.261 1064.84,291.452 1066.08,295.032 1067.32,297.714 1068.56,315.238 1069.8,319.52 1071.04,312.581 1072.28,315.206 1073.52,300.998 1074.76,314.272 1076,311.495 1077.24,297.964 1078.48,313.27 1079.72,316.114 1080.96,289.491 1082.2,297.895 1083.44,303.553 1084.68,312.771 1085.92,293.157 1087.16,296.659 1088.4,315.45 1089.64,305.21 1090.88,302.093 1092.12,303.398 1093.36,295.13 1094.6,311.51 1095.84,309.088 1097.08,295.57 1098.32,303.179 1099.56,294.537 1100.8,287.757 1102.04,297.905 1103.28,308.199 1104.52,287.288 1105.76,286.421 1107,298.982 1108.24,311.545 1109.48,287.771 1110.72,312.875 1111.96,283.982 1113.2,287.165 1114.44,299.88 1115.68,287.525 1116.92,291.146 1118.16,287.931 1119.4,306.359 1120.64,308.465 1121.88,301.895 1123.12,309.678 1124.36,279.36 1125.6,295.677 1126.84,293.406 1128.08,309.06 1129.32,284.489 1130.56,300.741 1131.8,299.957 1133.04,289.982 1134.28,290.851 1135.52,287.328 1136.76,288.563 1138,305.263 1139.24,302.605 1140.48,306.669 1141.72,282.948 1142.96,291.803 1144.2,288.014 1145.44,284.166 1146.68,274.821 1147.92,298.458 1149.16,278.381 1150.4,295.415 1151.64,298.286 1152.88,294.018 1154.12,283.724 1155.36,297.654 1156.6,297.218 1157.84,293.074 1159.08,275.38 1160.32,278.57 1161.56,277.03 1162.8,298.145 1164.04,289.573 1165.28,271.716 1166.52,273.756 1167.76,293.034 1169,298.486 1170.24,275.362 1171.48,271.072 1172.72,286.285 1173.96,272.365 1175.2,300.355 1176.44,293.503 1177.68,284.031 1178.92,284.7 1180.16,289.276 1181.4,287.048 1182.64,280.928 1183.88,276.286 1185.12,278.58 1186.36,286.623 1187.6,280.64 1188.84,293.902 1190.08,287.828 1191.32,281.118 1192.56,286.109 1193.8,274.379 1195.04,294.303 1196.28,286.076 1197.52,284.215 1198.76,290.242 1200,289.328 1201.24,282.874 1202.48,267.283 1203.72,281.244 1204.96,276.448 1206.2,273.519 1207.44,275.878 1208.68,273.113 1209.92,290.967 1211.16,265.752 1212.4,287.984 1213.64,277.296 1214.88,262.153 1216.12,281.661 1217.36,284.739 1218.6,289.449 1219.84,282.115 1221.08,287.623 1222.32,272.778 1223.56,271.321 1224.8,285.469 1226.04,260.196 1227.28,272.689 1228.52,272.652 1229.76,260.039 1231,258.836 1232.24,275.216 1233.48,280.106 1234.72,274.043 1235.96,267.555 1237.2,270.414 1238.44,287.2 1239.68,280.498 1240.92,276.646 1242.16,281.268 1243.4,276.45 1244.64,286.227 1245.88,259 1247.12,281.926 1248.36,269.114 1249.6,284.59 1250.84,280.297 1252.08,278.055 1253.32,285.593 1254.56,270.249 1255.8,271.51 1257.04,263.434 1258.28,270.921 1259.52,262.227 1260.76,266.862 1262,283.023 1263.24,258.291 1264.48,280.517 1265.72,253.075 1266.96,260.572 1268.2,255.141 1269.44,272.083 1270.68,262.078 1271.92,270.635 1273.16,272.054 1274.4,253.185 1275.64,278.392 1276.88,276.466 1278.12,269.972 1279.36,275.193 1280.6,270.616 1281.84,273.958 1283.08,253.799 1284.32,262.706 1285.56,250.707 1286.8,265.8 1288.04,269.853 1289.28,250.153 1290.52,273.846 1291.76,273.608 1293,265.658 1294.24,271.784 1295.48,252.952 1296.72,277.536 1297.96,259.802 1299.2,267.984 1300.44,267.038 1301.68,248.172 1302.92,275.167 1304.16,274.18 1305.4,267.814 1306.64,259.959 1307.88,255.847 1309.12,249.663 1310.36,261.472 1311.6,252.713 1312.84,258.76 1314.08,274.143 1315.32,260.389 1316.56,265.848 1317.8,247.562 1319.04,255.891 1320.28,252.185 1321.52,271.004 1322.76,257.452 1324,257.08 1325.24,257.538 1326.48,269.376 1327.72,266.655 1328.96,257.867 1330.2,266.939 1331.44,254.556 1332.68,257.292 1333.92,241.623 1335.16,254.979 1336.4,248.757 1337.64,265.506 1338.88,267.837 1340.12,260.123 1341.36,249.673 1342.6,262.606 1343.84,253.389 1345.08,241.934 1346.32,240.095 1347.56,264.539 1348.8,255.299 1350.04,255.089 1351.28,260.539 1352.52,247.114 1353.76,263.803 1355,262.931 1356.24,248.788 1357.48,239.575 1358.72,266.753 1359.96,254.66 1361.2,263.776 1362.44,250.81 1363.68,240.359 1364.92,262.812 1366.16,256.942 1367.4,266.088 1368.64,244.872 1369.88,257.352 1371.12,258.35 1372.36,241.13 1373.6,259.955 1374.84,244.415 1376.08,262.957 1377.32,234.276 1378.56,242.869 1379.8,243.464 1381.04,242.97 1382.28,234.85 1383.52,258.908 1384.76,260.75 1386,240.8 1387.24,251.036 1388.48,252.126 1389.72,250.31 1390.96,255.056 1392.2,253.049 1393.44,247.677 1394.68,250.177 1395.92,249.886 1397.16,246.924 1398.4,242.235 1399.64,236.673 1400.88,234.261 1402.12,260.944 1403.36,233.442 1404.6,256.14 1405.84,252.774 1407.08,232.736 1408.32,244.449 1409.56,239.761 1410.8,235.751 1412.04,252.921 1413.28,234.758 1414.52,241.405 1415.76,228.094 1417,241.603 1418.24,243.914 1419.48,244.682 1420.72,234.763 1421.96,235.741 1423.2,227.203 1424.44,232.434 1425.68,236.303 1426.92,247.015 1428.16,252.778 1429.4,239.895 1430.64,226.057 1431.88,255.505 1433.12,231.137 1434.36,243.518 1435.6,237.978 1436.84,246.549 1438.08,238.463 1439.32,241.083 1440.56,239.155 1441.8,230.533 1443.04,252.937 1444.28,230.432 1445.52,250.852 1446.76,242.276 1448,245.911"/>
<polyline fill="none" stroke="#d85218" stroke-width="0.5" stroke-linecap="butt" stroke-linejoin="miter" points="208,228.794 209.24,246.326 210.48,244.268 211.72,231.057 212.96,255.547 214.2,245.166 215.44,235.35 216.68,257.739 217.92,266.51 219.16,252.336 220.4,272.777 221.64,271.882 222.88,266.708 224.12,269.79 225.36,257.287 226.6,253.468 227.84,271.15 229.08,283.724 230.32,286.459 231.56,272.974 232.8,260.667 234.04,263.566 235.28,279.528 236.52,288.153 237.76,292.087 239,287.748 240.24,286.272 241.48,293.407 242.72,295.186 243.96,281.621 245.2,301.585 246.44,290.753 247.68,284.138 248.92,310.318 250.16,286.199 251.4,296.826 252.64,302.459 253.88,289.973 255.12,310.205 256.36,307.93 257.6,296.334 258.84,314.288 260.08,303.706 261.32,309.38 262.56,319.763 263.8,302.907 265.04,316.033 266.28,317.877 267.52,305.92 268.76,316.789 270,334.423 271.24,325.505 272.48,310.847 273.72,338.789 274.96,331.097 276.2,328.641 277.44,317.154 278.68,319.727 279.92,326.446 281.16,330.151 282.4,331.902 283.64,346.311 284.88,324.485 286.12,341.673 287.36,330.37 288.6,327.291 289.84,336.614 291.08,340.669 292.32,341.272 293.56,347.66 294.8,352.596 296.04,344.246 297.28,361.879 298.52,344.119 299.76,342.858 301,350.185 302.24,367.616 303.48,356.821 304.72,346.061 305.96,360.278 307.2,360.885 308.44,363.532 309.68,361.381 310.92,359.673 312.16,376.494 313.4,366.52 314.64,366.5 315.88,377.373 317.12,362.015 318.36,363.178 319.6,364.342 320.84,380.355 322.08,374.952 323.32,364.438 324.56,366.795 325.8,381.796 327.04,385.646 328.28,367.699 329.52,371.39 330.76,396.27 332,378.963 333.24,395.28 334.48,370.024 335.72,382.13 336.96,396.725 338.2,380.346 339.44,378.31 340.68,401.566 341.92,398.95 343.16,376.78 344.4,386.524 345.64,394.779 346.88,394.641 348.12,391.939 349.36,406.645 350.6,392.509 351.84,392.279 353.08,396.826 354.32,410.758 355.56,416.507 356.8,404.649 358.04,413.681 359.28,411.505 360.52,397.522 361.76,411.108 363,393.641 364.24,397.412 365.48,394.68 366.72,396.484 367.96,410.663 369.2,396.445 370.44,413.503 371.68,412.591 372.92,415.339 374.16,424.21 375.4,421.839 376.64,426.655 377.88,405.357 379.12,407.575 380.36,421.786 381.6,414.059 382.84,415.823 384.08,422.074 385.32,410.549 386.56,409.061 387.8,440.664 389.04,431.65 390.28,434.859 391.52,434.812 392.76,432.638 394,435.914 395.24,436.965 396.48,424.736 397.72,421.066 398.96,425.445 400.2,421.959 401.44,444.482 402.68,440.936 403.92,446.168 405.16,439.5 406.4,438.256 407.64,434.696 408.88,435.443 410.12,436.823 411.36,434.587 412.6,456.818 413.84,447.265 415.08,443.213 416.32,428.354 417.56,436.751 418.8,451.878 420.04,432.601 421.28,454.216 422.52,441.794 423.76,451.471 425,446.262 426.24,454.885 427.48,466.167 428.72,451.469 429.96,447.81 431.2,446.965 432.44,462.962 433.68,453.628 434.92,467.308 436.16,451.572 437.4,461.835 438.64,471.924 439.88,444.306 441.12,458.904 442.36,464.128 443.6,454.43 444.84,449.38 446.08,463.534 447.32,456.999 448.56,461.199 449.8,453.532 451.04,461.232 452.28,452.466 453.52,459.297 454.76,459.804 456,475.799 457.24,462.707 458.48,478.372 459.72,485.076 460.96,474.044 462.2,479.914 463.44,465.122 464.68,478.184 465.92,467.873 467.16,479.267 468.4,473.454 469.64,464.288 470.88,466.233 472.12,487.05 473.36,465.835 474.6,468.948 475.84,467.962 477.08,488.106 478.32,466.526 479.56,485.96 480.8,475.774 482.04,477.972 483.28,480.876 484.52,490.012 485.76,488.977 487,489.205 488.24,477.554 489.48,496.109 490.72,497.399 491.96,497.042 493.2,492.65 494.44,483.581 495.68,501.354 496.92,478.474 498.16,501.87 499.4,493.674 500.64,499.913 501.88,476.121 503.12,490.606 504.36,492.978 505.6,486.371 506.84,503.837 508.08,487.148 509.32,484.982 510.56,481.195 511.8,489.436 513.04,500.82 514.28,489.906 515.52,504.304 516.76,513.303 518,493.152 519.24,511.065 520.48,515.619 521.72,515.525 522.96,490.912 524.2,495.731 525.44,500.808 526.68,517.757 527.92,492.752 529.16,515.662 530.4,508.047 531.64,491.655 532.88,505.831 534.12,507.904 535.36,522.163 536.6,511.267 537.84,506.886 539.08,518.705 540.32,507.858 541.56,514.757 542.8,515.44 544.04,497.212 545.28,504.259 546.52,505.267 547.76,502.042 549,525.696 550.24,516.597 551.48,515.14 552.72,521.411 553.96,505.198 555.2,523.698 556.44,512.839 557.68,528.446 558.92,524.168 560.16,512.593 561.4,513.632 562.64,515.726 563.88,534.047 565.12,513.732 566.36,534.427 567.6,523.679 568.84,529.924 570.08,536.739 571.32,537.321 572.56,537.32 573.8,518.544 575.04,513.24 576.28,528.472 577.52,520.76 578.76,514.719 580,515.996 581.24,534.544 582.48,527.681 583.72,516.271 584.96,528.686 586.2,522.628 587.44,546.1 588.68,519.609 589.92,543.484 591.16,522.036 592.4,547.017 593.64,538.634 594.88,545.129 596.12,545.198 597.36,538.831 598.6,543.566 599.84,530.742 601.08,543.709 602.32,541.782 603.56,529.517 604.8,539.002 606.04,553.082 607.28,539.702 608.52,552.029 609.76,526.328 611,538.693 612.24,554.346 613.48,536.336 614.72,532.517 615.96,554.073 617.2,529.449 618.44,541.128 619.68,551.012 620.92,528.948 622.16,554.114 623.4,540.211 624.64,538.212 625.88,530.522 627.12,538.7 628.36,550.098 629.6,555.523 630.84,533.847 632.08,547.404 633.32,559.266 634.56,564.183 635.8,548.962 637.04,564.544 638.28,557.056 639.52,555.44 640.76,540.281 642,550.319 643.24,559.214 644.48,567.734 645.72,554.49 646.96,565.182 648.2,550.807 649.44,544.383 650.68,542.383 651.92,543.375 653.16,561.843 654.4,547.579 655.64,541.736 656.88,563.763 658.12,554.708 659.36,567.564 660.6,550.465 661.84,570.406 663.08,557.806 664.32,558.381 665.56,545.854 666.8,555.39 668.04,574.696 669.28,571.786 670.52,561.335 671.76,557.232 673,568.542 674.24,565.184 675.48,561.867 676.72,574.669 677.96,573.646 679.2,557.029 680.44,559.829 681.68,576.053 682.92,564.237 684.16,580.504 685.4,580.171 686.64,582.062 687.88,565.164 689.12,557.516 690.36,563.734 691.6,566.458 692.84,578.739 694.08,577.205 695.32,565.388 696.56,584.768 697.8,576.719 699.04,579.676 700.28,562.941 701.52,568.363 702.76,583.766 704,583.38 705.24,586.314 706.48,582.848 707.72,562.572 708.96,565.64 710.2,590.003 711.44,584.404 712.68,563.779 713.92,577.801 715.16,568.388 716.4,586.579 717.64,572.086 718.88,567.6 720.12,574.504 721.36,578.385 722.6,574.11 723.84,592.058 725.08,580.943 726.32,594.516 727.56,568.663 728.8,593.714 730.04,579.794 731.28,576.393 732.52,587.958 733.76,592.841 735,570.42 736.24,594.076 737.48,597.918 738.72,578.928 739.96,583.605 741.2,583.529 742.44,593.685 743.68,595.332 744.92,575.647 746.16,583.178 747.4,574.323 748.64,582.375 749.88,592.755 751.12,587.628 752.36,588.826 753.6,583.56 754.84,594.163 756.08,604.365 757.32,578.798 758.56,592.622 759.8,587.207 761.04,607.486 762.28,590.81 763.52,597.749 764.76,606.153 766,591.249 767.24,597.075 768.48,600.046 769.72,591.512 770.96,585.608 772.2,596.158 773.44,582.076 774.68,599.163 775.92,611.615 777.16,599.331 778.4,593.193 779.64,607.316 780.88,590.846 782.12,598.564 783.36,601.47 784.6,586.702 785.84,604.871 787.08,602.861 788.32,587.744 789.56,606.098 790.8,603.368 792.04,599.941 793.28,614.19 794.52,594.975 795.76,608.111 797,595.358 798.24,600.713 799.48,617.339 800.72,598.39 801.96,597.593 803.2,597.768 804.44,604.356 805.68,601.338 806.92,591.134 808.16,617.472 809.4,621.545 810.64,599.425 811.88,600.821 813.12,622.086 814.36,601.32 815.6,601.762 816.84,594.551 818.08,609.433 819.32,611.868 820.56,603.646 821.8,621.137 823.04,620.737 824.28,620.694 825.52,612.396 826.76,619.996 828,622.708 829.24,597.719 830.48,624.681 831.72,598.085 832.96,607.453 834.2,608.932 835.44,609.331 836.68,605.487 837.92,601.467 839.16,611.661 840.4,628.419 841.64,603.963 842.88,616.761 844.12,627.997 845.36,603.242 846.6,614.692 847.84,621.545 849.08,619.03 850.32,627.928 851.56,610.51 852.8,603.545 854.04,608.226 855.28,616.002 856.52,617.792 857.76,622.958 859,634.933 860.24,613.493 861.48,630.355 862.72,620.679 863.96,632.761 865.2,619.874 866.44,633.176 867.68,638.245 868.92,635.457 870.16,634.516 871.4,614.451 872.64,622.787 873.88,611.878 875.12,618.105 876.36,626.995 877.6,615.273 878.84,624.08 880.08,618.285 881.32,634.814 882.56,637.588 883.8,613.044 885.04,639.71 886.28,641.225 887.52,626.548 888.76,643.614 890,613.204 891.24,631.24 892.48,643.698 893.72,643.398 894.96,628.872 896.2,632.664 897.44,631.213 898.68,623.426 899.92,626.242 901.16,620.219 902.4,641.879 903.64,636.537 904.88,634.367 906.12,626.196 907.36,620.755 908.6,636.003 909.84,625.817 911.08,630.756 912.32,634.594 913.56,623.05 914.8,642.178 916.04,629.033 917.28,626.378 918.52,643.955 919.76,632.128 921,634.454 922.24,648.207 923.48,630.525 924.72,644.208 925.96,651.335 927.2,624.613 928.44,636.219 929.68,640.551 930.92,640.729 932.16,645.589 933.4,624.81 934.64,649.026 935.88,651.473 937.12,635.807 938.36,632.707 939.6,655.645 940.84,646.086 942.08,647.167 943.32,653.616 944.56,644.06 945.8,636.985 947.04,639.16 948.28,641.634 949.52,645.268 950.76,648.472 952,638.092 953.24,633.909 954.48,648.046 955.72,645.214 956.96,660.538 958.2,656.881 959.44,630.69 960.68,632.08 961.92,656.226 963.16,641.35 964.4,648.684 965.64,653.273 966.88,659.25 968.12,647.692 969.36,639.867 970.6,633.716 971.84,635.05 973.08,656.934 974.32,663.18 975.56,652.794 976.8,652.025 978.04,655.948 979.28,661.576 980.52,638.216 981.76,662.803 983,643.439 984.24,659.821 985.48,654.132 986.72,656.929 987.96,654.857 989.2,666.276 990.44,658.552 991.68,659.502 992.92,656.435 994.16,667.421 995.4,656.461 996.64,641.689 997.88,663.863 999.12,667.192 1000.36,646.794 1001.6,641.171 1002.84,669.088 1004.08,670.955 1005.32,653.216 1006.56,650.877 1007.8,647.02 1009.04,669.452 1010.28,662.995 1011.52,645.787 1012.76,667.211 1014,659.992 1015.24,657.808 1016.48,644.416 1017.72,673.562 1018.96,648.968 1020.2,652.403 1021.44,656.285 1022.68,656.632 1023.92,665.377 1025.16,672.272 1026.4,660.67 1027.64,654.772 1028.88,664.823 1030.12,653.217 1031.36,660.776 1032.6,676.825 1033.84,675.215 1035.08,658.167 1036.32,660.823 1037.56,662.067 1038.8,652.264 1040.04,679.33 1041.28,679.132 1042.52,661.207 1043.76,673.884 1045,650.818 1046.24,654.063 1047.48,659.482 1048.72,681.591 1049.96,669.219 1051.2,659.14 1052.44,655.835 1053.68,657.967 1054.92,671.53 1056.16,658.553 1057.4,669.351 1058.64,657.984 1059.88,664.584 1061.12,664.159 1062.36,661.077 1063.6,661.389 1064.84,654.107 1066.08,658.214 1067.32,661.422 1068.56,679.473 1069.8,684.28 1071.04,677.866 1072.28,681.014 1073.52,667.329 1074.76,681.126 1076,678.871 1077.24,665.861 1078.48,681.688 1079.72,685.052 1080.96,658.948 1082.2,667.871 1083.44,674.047 1084.68,683.782 1085.92,664.685 1087.16,668.703 1088.4,688.009 1089.64,678.284 1090.88,675.681 1092.12,677.499 1093.36,669.744 1094.6,686.637 1095.84,684.726 1097.08,671.72 1098.32,679.839 1099.56,671.706 1100.8,665.436 1102.04,676.092 1103.28,686.894 1104.52,666.491 1105.76,666.13 1107,679.197 1108.24,692.266 1109.48,668.997 1110.72,694.604 1111.96,666.215 1113.2,669.901 1114.44,683.118 1115.68,671.265 1116.92,675.387 1118.16,672.673 1119.4,691.602 1120.64,694.206 1121.88,688.135 1123.12,696.417 1124.36,666.596 1125.6,683.41 1126.84,681.635 1128.08,697.785 1129.32,673.71 1130.56,690.456 1131.8,690.166 1133.04,680.685 1134.28,682.046 1135.52,679.016 1136.76,680.743 1138,697.934 1139.24,695.766 1140.48,700.32 1141.72,677.089 1142.96,686.432 1144.2,683.132 1145.44,679.771 1146.68,670.914 1147.92,695.038 1149.16,675.446 1150.4,692.966 1151.64,696.322 1152.88,692.539 1154.12,682.727 1155.36,697.141 1156.6,697.187 1157.84,693.526 1159.08,676.313 1160.32,679.985 1161.56,678.925 1162.8,700.519 1164.04,692.427 1165.28,675.049 1166.52,677.567 1167.76,697.323 1169,703.251 1170.24,680.604 1171.48,676.79 1172.72,692.479 1173.96,679.034 1175.2,707.498 1176.44,701.12 1177.68,692.122 1178.92,693.263 1180.16,698.312 1181.4,696.555 1182.64,690.906 1183.88,686.735 1185.12,689.499 1186.36,698.011 1187.6,692.498 1188.84,706.228 1190.08,700.622 1191.32,694.38 1192.56,699.838 1193.8,688.574 1195.04,708.964 1196.28,701.202 1197.52,699.806 1198.76,706.298 1200,705.848 1201.24,699.857 1202.48,684.729 1203.72,699.152 1204.96,694.818 1206.2,692.35 1207.44,695.17 1208.68,692.865 1209.92,711.179 1211.16,686.423 1212.4,709.114 1213.64,698.884 1214.88,684.199 1216.12,704.165 1217.36,707.699 1218.6,712.865 1219.84,705.987 1221.08,711.95 1222.32,697.56 1223.56,696.557 1224.8,711.159 1226.04,686.339 1227.28,699.285 1228.52,699.701 1229.76,687.539 1231,686.787 1232.24,703.618 1233.48,708.959 1234.72,703.345 1235.96,697.307 1237.2,700.615 1238.44,717.849 1239.68,711.595 1240.92,708.19 1242.16,713.26 1243.4,708.888 1244.64,719.11 1245.88,692.33 1247.12,715.701 1248.36,703.333 1249.6,719.253 1250.84,715.404 1252.08,713.605 1253.32,721.586 1254.56,706.684 1255.8,708.387 1257.04,700.752 1258.28,708.68 1259.52,700.427 1260.76,705.501 1262,722.102 1263.24,697.809 1264.48,720.473 1265.72,693.469 1266.96,701.403 1268.2,696.41 1269.44,713.788 1270.68,704.22 1271.92,713.213 1273.16,715.067 1274.4,696.633 1275.64,722.274 1276.88,720.781 1278.12,714.721 1279.36,720.375 1280.6,716.231 1281.84,720.005 1283.08,700.278 1284.32,709.616 1285.56,698.048 1286.8,713.571 1288.04,718.054 1289.28,698.784 1290.52,722.906 1291.76,723.096 1293,715.574 1294.24,722.128 1295.48,703.724 1296.72,728.734 1297.96,711.427 1299.2,720.035 1300.44,719.514 1301.68,701.073 1302.92,728.493 1304.16,727.93 1305.4,721.988 1306.64,714.556 1307.88,710.867 1309.12,705.105 1310.36,717.337 1311.6,709 1312.84,715.468 1314.08,731.272 1315.32,717.938 1316.56,723.817 1317.8,705.951 1319.04,714.699 1320.28,711.412 1321.52,730.649 1322.76,717.514 1324,717.56 1325.24,718.435 1326.48,730.69 1327.72,728.385 1328.96,720.012 1330.2,729.5 1331.44,717.532 1332.68,720.682 1333.92,705.428 1335.16,719.197 1336.4,713.388 1337.64,730.55 1338.88,733.294 1340.12,725.993 1341.36,715.954 1342.6,729.298 1343.84,720.492 1345.08,709.448 1346.32,708.019 1347.56,732.872 1348.8,724.042 1350.04,724.24 1351.28,730.099 1352.52,717.082 1353.76,734.178 1355,733.714 1356.24,719.978 1357.48,711.171 1358.72,738.755 1359.96,727.068 1361.2,736.589 1362.44,724.028 1363.68,713.982 1364.92,736.839 1366.16,731.372 1367.4,740.922 1368.64,720.108 1369.88,732.991 1371.12,734.392 1372.36,717.573 1373.6,736.799 1374.84,721.661 1376.08,740.603 1377.32,712.323 1378.56,721.315 1379.8,722.31 1381.04,722.214 1382.28,714.493 1383.52,738.95 1384.76,741.19 1386,721.637 1387.24,732.271 1388.48,733.757 1389.72,732.338 1390.96,737.48 1392.2,735.868 1393.44,730.892 1394.68,733.787 1395.92,733.89 1397.16,731.323 1398.4,727.027 1399.64,721.859 1400.88,719.839 1402.12,746.915 1403.36,719.805 1404.6,742.895 1405.84,739.921 1407.08,720.274 1408.32,732.378 1409.56,728.08 1410.8,724.461 1412.04,742.021 1413.28,724.246 1414.52,731.283 1415.76,718.361 1417,732.258 1418.24,734.957 1419.48,736.112 1420.72,726.581 1421.96,727.946 1423.2,719.794 1424.44,725.411 1425.68,729.667 1426.92,740.764 1428.16,746.911 1429.4,734.413 1430.64,720.959 1431.88,750.792 1433.12,726.807 1434.36,739.572 1435.6,734.415 1436.84,743.368 1438.08,735.664 1439.32,738.666 1440.56,737.12 1441.8,728.88 1443.04,751.664 1444.28,729.54 1445.52,750.339 1446.76,742.143 1448,746.158"/>
<polyline fill="none" stroke="#ecb01f" stroke-width="0.5" stroke-linecap="butt" stroke-linejoin="miter" points="208,156.835 209.24,187.748 210.48,179.52 211.72,149.027 212.96,193.977 214.2,169.222 215.44,145.635 216.68,186.494 217.92,200.155 219.16,167.962 220.4,205.033 221.64,199.467 222.88,185.378 224.12,187.833 225.36,159.152 226.6,147.868 227.84,179.62 229.08,201.186 230.32,203.105 231.56,172.614 232.8,144.509 234.04,146.845 235.28,175.334 236.52,189.179 237.76,193.668 239,181.639 240.24,175.362 241.48,186.334 242.72,186.619 243.96,156.243 245.2,192.949 246.44,168.088 247.68,151.685 248.92,200.896 250.16,149.532 251.4,167.683 252.64,175.87 253.88,147.842 255.12,185.272 256.36,177.709 257.6,151.526 258.84,184.464 260.08,160.352 261.32,168.772 262.56,186.63 263.8,150.03 265.04,173.416 266.28,174.255 267.52,147.511 268.76,166.44 270,198.918 271.24,178.31 272.48,146.239 273.72,199.386 274.96,181.284 276.2,173.672 277.44,148.014 278.68,150.494 279.92,161.284 281.16,166.062 282.4,166.947 283.64,193.167 284.88,146.93 286.12,178.739 287.36,153.58 288.6,144.886 289.84,161.011 291.08,166.616 292.32,165.33 293.56,175.629 294.8,183.041 296.04,163.893 297.28,196.726 298.52,158.787 299.76,153.861 301,166.124 302.24,198.609 303.48,174.655 304.72,150.784 305.96,176.881 307.2,175.769 308.44,178.753 309.68,172.152 310.92,166.448 312.16,197.818 313.4,175.608 314.64,173.319 315.88,192.828 317.12,159.886 318.36,159.998 319.6,160.124 320.84,189.961 322.08,176.976 323.32,153.78 324.56,156.337 325.8,184.195 327.04,189.762 328.28,151.743 329.52,157.012 330.76,204.672 332,167.965 333.24,198.518 334.48,145.937 335.72,168.087 336.96,195.227 338.2,160.429 339.44,154.326 340.68,198.817 341.92,191.575 343.16,145.234 344.4,162.731 345.64,177.258 346.88,175.008 348.12,167.643 349.36,195.099 350.6,164.883 351.84,162.487 353.08,169.654 354.32,195.599 355.56,205.187 356.8,179.571 358.04,195.742 359.28,189.506 360.52,159.666 361.76,184.971 363,148.178 364.24,153.869 365.48,146.563 366.72,148.338 367.96,174.869 369.2,144.616 370.44,176.921 371.68,173.295 372.92,176.995 374.16,192.95 375.4,186.43 376.64,194.291 377.88,149.93 379.12,152.61 380.36,179.282 381.6,162.086 382.84,163.879 384.08,174.652 385.32,149.883 386.56,145.193 387.8,206.692 389.04,186.964 390.28,191.69 391.52,189.91 392.76,183.884 394,188.763 395.24,189.2 396.48,163.082 397.72,154.09 398.96,161.201 400.2,152.591 401.44,196.003 402.68,187.285 403.92,196.128 405.16,181.179 406.4,177.083 407.64,168.36 408.88,168.26 410.12,169.429 411.36,163.375 412.6,206.26 413.84,185.582 415.08,175.911 416.32,144.635 417.56,159.875 418.8,188.58 420.04,148.484 421.28,190.178 422.52,163.802 423.76,181.629 425,169.693 426.24,185.423 427.48,206.478 428.72,175.58 429.96,166.763 431.2,163.58 432.44,194.087 433.68,173.937 434.92,199.82 436.16,166.875 437.4,185.935 438.64,204.652 439.88,147.959 441.12,175.704 442.36,184.707 443.6,163.868 444.84,152.333 446.08,179.209 447.32,164.713 448.56,171.692 449.8,154.941 451.04,168.929 452.28,149.989 453.52,162.249 454.76,161.865 456,192.461 457.24,164.89 458.48,194.836 459.72,206.865 460.96,183.425 462.2,193.796 463.44,162.845 464.68,187.607 465.92,165.63 467.16,187.064 468.4,174.091 469.64,154.416 470.88,156.965 472.12,197.265 473.36,153.503 474.6,158.403 475.84,155.108 477.08,194.077 478.32,149.603 479.56,187.162 480.8,165.484 482.04,168.578 483.28,173.088 484.52,190.066 485.76,186.706 487,185.878 488.24,161.294 489.48,197.126 490.72,198.431 491.96,196.447 493.2,186.397 494.44,166.997 495.68,201.284 496.92,154.27 498.16,199.809 499.4,182.171 500.64,193.406 501.88,144.582 503.12,172.315 504.36,175.825 505.6,161.382 506.84,195.089 508.08,160.489 509.32,154.94 510.56,146.151 511.8,161.422 513.04,182.982 514.28,159.949 515.52,187.546 516.76,204.346 518,162.849 519.24,197.485 520.48,205.407 521.72,204.036 522.96,153.629 524.2,162.09 525.44,171.071 526.68,203.797 527.92,152.62 529.16,197.276 530.4,180.885 531.64,146.946 532.88,174.143 534.12,177.138 535.36,204.508 536.6,181.572 537.84,171.668 539.08,194.168 540.32,171.339 541.56,184.003 542.8,184.24 544.04,146.657 545.28,159.629 546.52,160.526 547.76,152.957 549,199.151 550.24,179.842 551.48,175.82 552.72,187.258 553.96,153.728 555.2,189.63 556.44,166.815 557.68,196.934 558.92,187.289 560.16,163.05 561.4,164.044 562.64,167.149 563.88,202.71 565.12,161.005 566.36,201.321 567.6,178.753 568.84,190.175 570.08,202.739 571.32,202.84 572.56,201.778 573.8,163.167 575.04,151.505 576.28,180.917 577.52,164.443 578.76,151.315 580,152.823 581.24,188.878 582.48,174.113 583.72,150.256 584.96,174.053 586.2,160.904 587.44,206.82 588.68,152.811 589.92,199.537 591.16,155.62 592.4,204.563 593.64,186.781 594.88,198.758 596.12,197.884 597.36,184.14 598.6,192.604 599.84,165.952 601.08,190.883 602.32,186.03 603.56,160.503 604.8,178.478 606.04,205.646 607.28,177.896 608.52,201.563 609.76,149.177 611,172.922 612.24,203.248 613.48,166.249 614.72,157.635 615.96,199.773 617.2,149.554 618.44,171.943 619.68,190.745 620.92,145.652 622.16,195.021 623.4,166.254 624.64,161.298 625.88,144.964 627.12,160.365 628.36,182.209 629.6,192.111 630.84,147.811 632.08,173.981 633.32,196.761 634.56,205.654 635.8,174.274 637.04,204.502 638.28,188.591 639.52,184.427 640.76,153.178 642,172.327 643.24,189.191 644.48,205.305 645.72,177.896 646.96,198.36 648.2,168.691 649.44,154.927 650.68,150.014 651.92,151.087 653.16,187.111 654.4,157.676 655.64,145.084 656.88,188.234 658.12,169.221 659.36,194.034 660.6,158.937 661.84,197.922 663.08,171.828 664.32,172.085 665.56,146.141 666.8,164.325 668.04,202.05 669.28,195.344 670.52,173.56 671.76,164.474 673,186.214 674.24,178.62 675.48,171.109 676.72,195.839 677.96,192.923 679.2,158.819 680.44,163.551 681.68,195.131 682.92,170.635 684.16,202.307 685.4,200.779 686.64,203.7 687.88,169.046 689.12,152.895 690.36,164.477 691.6,169.072 692.84,192.784 694.08,188.868 695.32,164.387 696.56,202.3 697.8,185.359 699.04,190.43 700.28,156.12 701.52,166.125 702.76,196.096 704,194.487 705.24,199.521 706.48,191.757 707.72,150.377 708.96,155.684 710.2,203.582 711.44,191.559 712.68,149.485 713.92,176.708 715.16,157.06 716.4,192.624 717.64,162.821 718.88,153.032 720.12,166.026 721.36,172.975 722.6,163.614 723.84,198.701 725.08,175.664 726.32,202.003 727.56,149.493 728.8,198.792 730.04,170.15 731.28,162.547 732.52,184.88 733.76,193.847 735,148.21 736.24,194.73 737.48,201.62 738.72,162.849 739.96,171.413 741.2,170.473 742.44,189.999 743.68,192.508 744.92,152.355 746.16,166.635 747.4,148.143 748.64,163.469 749.88,183.451 751.12,172.422 752.36,174.042 753.6,162.737 754.84,183.17 756.08,202.804 757.32,150.9 758.56,177.782 759.8,166.185 761.04,205.979 762.28,171.863 763.52,184.979 764.76,201.026 766,170.458 767.24,181.352 768.48,186.539 769.72,168.716 770.96,156.154 772.2,176.501 773.44,147.586 774.68,181.009 775.92,205.166 777.16,179.851 778.4,166.828 779.64,194.33 780.88,160.648 782.12,175.341 783.36,180.413 784.6,150.138 785.84,185.739 787.08,180.982 788.32,150.013 789.56,185.986 790.8,179.794 792.04,172.208 793.28,199.975 794.52,160.818 795.76,186.362 797,160.13 798.24,170.115 799.48,202.644 800.72,164.022 801.96,161.708 803.2,161.336 804.44,173.795 805.68,167.041 806.92,145.916 808.16,197.878 809.4,205.31 810.64,160.357 811.88,162.437 813.12,204.258 814.36,162.016 815.6,162.193 816.84,147.064 818.08,176.123 819.32,180.288 820.56,163.142 821.8,197.421 823.04,195.921 824.28,195.136 825.52,177.841 826.76,192.344 828,197.073 829.24,146.4 830.48,199.63 831.72,145.745 832.96,163.79 834.2,166.057 835.44,166.166 836.68,157.791 837.92,149.065 839.16,168.767 840.4,201.598 841.64,152.002 842.88,176.916 844.12,198.706 845.36,148.517 846.6,170.737 847.84,183.766 849.08,178.06 850.32,195.179 851.56,159.669 852.8,145.064 854.04,153.754 855.28,168.636 856.52,171.545 857.76,181.208 859,204.489 860.24,160.943 861.48,194 862.72,173.984 863.96,197.483 865.2,171.047 866.44,196.989 867.68,206.467 868.92,200.231 870.16,197.69 871.4,156.903 872.64,172.919 873.88,150.443 875.12,162.244 876.36,179.371 877.6,155.273 878.84,172.237 880.08,159.996 881.32,192.405 882.56,197.304 883.8,147.569 885.04,200.254 886.28,202.639 887.52,172.641 888.76,206.13 890,144.668 891.24,180.098 892.48,204.373 893.72,203.134 894.96,173.443 896.2,180.39 897.44,176.852 898.68,160.643 899.92,165.639 901.16,152.959 902.4,195.647 903.64,184.331 904.88,179.36 906.12,162.388 907.36,150.878 908.6,180.746 909.84,159.747 911.08,168.999 912.32,176.049 913.56,152.337 914.8,189.971 916.04,163.058 917.28,157.127 918.52,191.661 919.76,167.388 921,171.421 922.24,198.309 923.48,162.328 924.72,189.078 925.96,202.718 927.2,148.66 928.44,171.258 929.68,179.311 930.92,179.055 932.16,188.165 933.4,145.996 934.64,193.821 935.88,198.106 937.12,166.168 938.36,159.362 939.6,204.632 940.84,184.91 942.08,186.467 943.32,198.765 944.56,179.05 945.8,164.299 947.04,168.049 948.28,172.399 949.52,179.069 950.76,184.878 952,163.523 953.24,154.561 954.48,182.239 955.72,175.981 956.96,206.038 958.2,198.13 959.44,145.158 960.68,147.346 961.92,195.049 963.16,164.708 964.4,178.789 965.64,187.379 966.88,198.747 968.12,175.045 969.36,158.81 970.6,145.924 971.84,148.008 973.08,191.194 974.32,203.105 975.56,181.753 976.8,179.635 978.04,186.902 979.28,197.579 980.52,150.282 981.76,198.879 983,159.576 984.24,191.765 985.48,179.812 986.72,184.831 987.96,180.115 989.2,202.381 990.44,186.363 991.68,187.692 992.92,180.988 994.16,202.391 995.4,179.903 996.64,149.792 997.88,193.574 999.12,199.665 1000.36,158.306 1001.6,146.495 1002.84,201.765 1004.08,204.936 1005.32,168.897 1006.56,163.657 1007.8,155.383 1009.04,199.688 1010.28,186.215 1011.52,151.24 1012.76,193.532 1014,178.535 1015.24,173.613 1016.48,146.273 1017.72,204.011 1018.96,154.269 1020.2,160.585 1021.44,167.797 1022.68,167.941 1023.92,184.879 1025.16,198.119 1026.4,174.366 1027.64,162.021 1028.88,181.575 1030.12,157.817 1031.36,172.387 1032.6,203.94 1033.84,200.175 1035.08,165.534 1036.32,170.303 1037.56,172.247 1038.8,152.099 1040.04,205.69 1041.28,204.753 1042.52,168.364 1043.76,193.178 1045,146.507 1046.24,152.458 1047.48,162.76 1048.72,206.441 1049.96,181.161 1051.2,160.468 1052.44,153.324 1053.68,157.054 1054.92,183.645 1056.16,157.16 1057.4,178.224 1058.64,154.957 1059.88,167.628 1061.12,166.249 1062.36,159.555 1063.6,159.65 1064.84,144.559 1066.08,152.246 1067.32,158.136 1068.56,193.711 1069.8,202.8 1071.04,189.447 1072.28,195.22 1073.52,167.327 1074.76,194.398 1076,189.365 1077.24,162.826 1078.48,193.959 1079.72,200.166 1080.96,147.439 1082.2,164.766 1083.44,176.6 1084.68,195.553 1085.92,156.842 1087.16,164.362 1088.4,202.459 1089.64,182.493 1090.88,176.775 1092.12,179.897 1093.36,163.874 1094.6,197.147 1095.84,192.814 1097.08,166.29 1098.32,182.018 1099.56,165.243 1100.8,152.192 1102.04,172.998 1103.28,194.093 1104.52,152.779 1105.76,151.552 1107,177.18 1108.24,202.811 1109.48,155.768 1110.72,206.479 1111.96,149.197 1113.2,156.066 1114.44,181.998 1115.68,157.79 1116.92,165.533 1118.16,159.603 1119.4,196.961 1120.64,201.671 1121.88,189.031 1123.12,205.095 1124.36,144.956 1125.6,178.088 1126.84,174.042 1128.08,205.845 1129.32,157.199 1130.56,190.198 1131.8,189.123 1133.04,169.667 1134.28,171.897 1135.52,165.344 1136.76,168.306 1138,202.197 1139.24,197.371 1140.48,205.988 1141.72,159.038 1142.96,177.235 1144.2,170.147 1145.44,162.937 1146.68,144.734 1147.92,192.496 1149.16,152.827 1150.4,187.38 1151.64,193.608 1152.88,185.557 1154.12,165.451 1155.36,193.795 1156.6,193.405 1157.84,185.6 1159.08,150.693 1160.32,157.555 1161.56,154.955 1162.8,197.664 1164.04,181.001 1165.28,145.765 1166.52,150.323 1167.76,189.357 1169,200.737 1170.24,154.966 1171.48,146.862 1172.72,177.764 1173.96,150.398 1175.2,206.853 1176.44,193.624 1177.68,175.153 1178.92,176.963 1180.16,186.588 1181.4,182.603 1182.64,170.835 1183.88,162.021 1185.12,167.078 1186.36,183.634 1187.6,172.138 1188.84,199.131 1190.08,187.45 1191.32,174.499 1192.56,184.947 1193.8,161.954 1195.04,202.267 1196.28,186.277 1197.52,183.021 1198.76,195.541 1200,194.176 1201.24,181.732 1202.48,151.012 1203.72,179.396 1204.96,170.267 1206.2,164.868 1207.44,170.047 1208.68,164.977 1209.92,201.146 1211.16,151.176 1212.4,196.099 1213.64,175.18 1214.88,145.351 1216.12,184.826 1217.36,191.437 1218.6,201.315 1219.84,187.102 1221.08,198.573 1222.32,169.337 1223.56,166.878 1224.8,195.628 1226.04,145.535 1227.28,170.974 1228.52,171.353 1229.76,146.577 1231,144.623 1232.24,177.834 1233.48,188.065 1234.72,176.388 1235.96,163.861 1237.2,170.029 1238.44,204.049 1239.68,191.092 1240.92,183.836 1242.16,193.528 1243.4,184.338 1244.64,204.337 1245.88,150.33 1247.12,196.627 1248.36,171.447 1249.6,202.844 1250.84,194.702 1252.08,190.66 1253.32,206.179 1254.56,175.933 1255.8,178.897 1257.04,163.185 1258.28,178.601 1259.52,161.654 1260.76,171.364 1262,204.125 1263.24,155.1 1264.48,199.991 1265.72,145.544 1266.96,160.975 1268.2,150.55 1269.44,184.871 1270.68,165.298 1271.92,182.848 1273.16,186.121 1274.4,148.818 1275.64,199.665 1276.88,196.247 1278.12,183.693 1279.36,194.568 1280.6,185.847 1281.84,192.963 1283.08,153.076 1284.32,171.322 1285.56,147.755 1286.8,178.371 1288.04,186.907 1289.28,147.937 1290.52,195.752 1291.76,195.704 1293,180.232 1294.24,192.912 1295.48,155.676 1296.72,205.27 1297.96,170.228 1299.2,187.019 1300.44,185.552 1301.68,148.245 1302.92,202.66 1304.16,201.109 1305.4,188.801 1306.64,173.515 1307.88,165.714 1309.12,153.768 1310.36,177.808 1311.6,160.713 1312.84,173.228 1314.08,204.415 1315.32,177.326 1316.56,188.665 1317.8,152.513 1319.04,169.59 1320.28,162.597 1321.52,200.653 1322.76,173.966 1324,173.64 1325.24,174.973 1326.48,199.067 1327.72,194.04 1328.96,176.879 1330.2,195.439 1331.44,171.087 1332.68,176.974 1333.92,146.051 1335.16,173.176 1336.4,161.145 1337.64,195.056 1338.88,200.13 1340.12,185.116 1341.36,164.626 1342.6,190.904 1343.84,172.88 1345.08,150.382 1346.32,147.114 1347.56,196.412 1348.8,178.341 1350.04,178.329 1351.28,189.639 1352.52,163.196 1353.76,196.981 1355,195.644 1356.24,167.766 1357.48,149.745 1358.72,204.508 1359.96,180.728 1361.2,199.365 1362.44,173.839 1363.68,153.341 1364.92,198.651 1366.16,187.314 1367.4,206.01 1368.64,163.979 1369.88,189.342 1371.12,191.742 1372.36,157.703 1373.6,195.754 1374.84,165.076 1376.08,202.56 1377.32,145.599 1378.56,163.184 1379.8,164.774 1381.04,164.184 1382.28,148.343 1383.52,196.858 1384.76,200.94 1386,161.438 1387.24,182.307 1388.48,184.882 1389.72,181.648 1390.96,191.536 1392.2,187.917 1393.44,177.569 1394.68,182.964 1395.92,182.776 1397.16,177.247 1398.4,168.263 1399.64,157.532 1400.88,153.1 1402.12,206.859 1403.36,152.247 1404.6,198.035 1405.84,191.695 1407.08,152.01 1408.32,175.827 1409.56,166.841 1410.8,159.212 1412.04,193.942 1413.28,158.004 1414.52,171.687 1415.76,145.455 1417,172.861 1418.24,177.872 1419.48,179.794 1420.72,160.344 1421.96,162.687 1423.2,145.997 1424.44,156.845 1425.68,164.97 1426.92,186.779 1428.16,198.689 1429.4,173.308 1430.64,146.016 1431.88,205.297 1433.12,156.945 1434.36,182.09 1435.6,171.393 1436.84,188.917 1438.08,173.126 1439.32,178.749 1440.56,175.275 1441.8,158.413 1443.04,203.601 1444.28,158.972 1445.52,200.191 1446.76,183.419 1448,191.069"/>
<polyline fill="none" stroke="#7d2e8d" stroke-width="0.5" stroke-linecap="butt" stroke-linejoin="miter" points="208,801 209.24,800.389 210.48,799.778 211.72,799.166 212.96,798.555 214.2,797.944 215.44,797.333 216.68,796.721 217.92,796.11 219.16,795.499 220.4,794.888 221.64,794.276 222.88,793.665 224.12,793.054 225.36,792.443 226.6,791.831 227.84,791.22 229.08,790.609 230.32,789.997 231.56,789.386 232.8,788.775 234.04,788.164 235.28,787.552 236.52,786.941 237.76,786.33 239,785.719 240.24,785.108 241.48,784.496 242.72,783.885 243.96,783.274 245.2,782.662 246.44,782.051 247.68,781.44 248.92,780.829 250.16,780.218 251.4,779.606 252.64,778.995 253.88,778.384 255.12,777.773 256.36,777.161 257.6,776.55 258.84,775.939 260.08,775.328 261.32,774.716 262.56,774.105 263.8,773.494 265.04,772.883 266.28,772.271 267.52,771.66 268.76,771.049 270,770.438 271.24,769.826 272.48,769.215 273.72,768.604 274.96,767.993 276.2,767.381 277.44,766.77 278.68,766.159 279.92,765.547 281.16,764.936 282.4,764.325 283.64,763.714 284.88,763.103 286.12,762.491 287.36,761.88 288.6,761.269 289.84,760.658 291.08,760.046 292.32,759.435 293.56,758.824 294.8,758.213 296.04,757.601 297.28,756.99 298.52,756.379 299.76,755.768 301,755.156 302.24,754.545 303.48,753.934 304.72,753.323 305.96,752.711 307.2,752.1 308.44,751.489 309.68,750.878 310.92,750.266 312.16,749.655 313.4,749.044 314.64,748.432 315.88,747.821 317.12,747.21 318.36,746.599 319.6,745.988 320.84,745.376 322.08,744.765 323.32,744.154 324.56,743.542 325.8,742.931 327.04,742.32 328.28,741.709 329.52,741.098 330.76,740.486 332,739.875 333.24,739.264 334.48,738.653 335.72,738.041 336.96,737.43 338.2,736.819 339.44,736.208 340.68,735.596 341.92,734.985 343.16,734.374 344.4,733.763 345.64,733.151 346.88,732.54 348.12,731.929 349.36,731.318 350.6,730.706 351.84,730.095 353.08,729.484 354.32,728.873 355.56,728.261 356.8,727.65 358.04,727.039 359.28,726.427 360.52,725.816 361.76,725.205 363,724.594 364.24,723.983 365.48,723.371 366.72,722.76 367.96,722.149 369.2,721.537 370.44,720.926 371.68,720.315 372.92,719.704 374.16,719.093 375.4,718.481 376.64,717.87 377.88,717.259 379.12,716.648 380.36,716.036 381.6,715.425 382.84,714.814 384.08,714.203 385.32,713.591 386.56,712.98 387.8,712.369 389.04,711.758 390.28,711.146 391.52,710.535 392.76,709.924 394,709.312 395.24,708.701 396.48,708.09 397.72,707.479 398.96,706.868 400.2,706.256 401.44,705.645 402.68,705.034 403.92,704.422 405.16,703.811 406.4,703.2 407.64,702.589 408.88,701.977 410.12,701.366 411.36,700.755 412.6,700.144 413.84,699.532 415.08,698.921 416.32,698.31 417.56,697.699 418.8,697.088 420.04,696.476 421.28,695.865 422.52,695.254 423.76,694.643 425,694.031 426.24,693.42 427.48,692.809 428.72,692.198 429.96,691.586 431.2,690.975 432.44,690.364 433.68,689.753 434.92,689.141 436.16,688.53 437.4,687.919 438.64,687.307 439.88,686.696 441.12,686.085 442.36,685.474 443.6,684.862 444.84,684.251 446.08,683.64 447.32,683.029 448.56,682.417 449.8,681.806 451.04,681.195 452.28,680.584 453.52,679.972 454.76,679.361 456,678.75 457.24,678.139 458.48,677.527 459.72,676.916 460.96,676.305 462.2,675.694 463.44,675.083 464.68,674.471 465.92,673.86 467.16,673.249 468.4,672.638 469.64,672.026 470.88,671.415 472.12,670.804 473.36,670.193 474.6,669.581 475.84,668.97 477.08,668.359 478.32,667.747 479.56,667.136 480.8,666.525 482.04,665.914 483.28,665.302 484.52,664.691 485.76,664.08 487,663.469 488.24,662.857 489.48,662.246 490.72,661.635 491.96,661.024 493.2,660.412 494.44,659.801 495.68,659.19 496.92,658.579 498.16,657.968 499.4,657.356 500.64,656.745 501.88,656.134 503.12,655.523 504.36,654.911 505.6,654.3 506.84,653.689 508.08,653.078 509.32,652.466 510.56,651.855 511.8,651.244 513.04,650.633 514.28,650.021 515.52,649.41 516.76,648.799 518,648.188 519.24,647.576 520.48,646.965 521.72,646.354 522.96,645.742 524.2,645.131 525.44,644.52 526.68,643.909 527.92,643.297 529.16,642.686 530.4,642.075 531.64,641.464 532.88,640.853 534.12,640.241 535.36,639.63 536.6,639.019 537.84,638.407 539.08,637.796 540.32,637.185 541.56,636.574 542.8,635.963 544.04,635.351 545.28,634.74 546.52,634.129 547.76,633.518 549,632.906 550.24,632.295 551.48,631.684 552.72,631.073 553.96,630.461 555.2,629.85 556.44,629.239 557.68,628.628 558.92,628.016 560.16,627.405 561.4,626.794 562.64,626.182 563.88,625.571 565.12,624.96 566.36,624.349 567.6,623.737 568.84,623.126 570.08,622.515 571.32,621.904 572.56,621.292 573.8,620.681 575.04,620.07 576.28,619.459 577.52,618.848 578.76,618.236 580,617.625 581.24,617.014 582.48,616.402 583.72,615.791 584.96,615.18 586.2,614.569 587.44,613.958 588.68,613.346 589.92,612.735 591.16,612.124 592.4,611.513 593.64,610.901 594.88,610.29 596.12,609.679 597.36,609.068 598.6,608.456 599.84,607.845 601.08,607.234 602.32,606.622 603.56,606.011 604.8,605.4 606.04,604.789 607.28,604.177 608.52,603.566 609.76,602.955 611,602.344 612.24,601.733 613.48,601.121 614.72,600.51 615.96,599.899 617.2,599.287 618.44,598.676 619.68,598.065 620.92,597.454 622.16,596.843 623.4,596.231 624.64,595.62 625.88,595.009 627.12,594.398 628.36,593.786 629.6,593.175 630.84,592.564 632.08,591.953 633.32,591.341 634.56,590.73 635.8,590.119 637.04,589.508 638.28,588.896 639.52,588.285 640.76,587.674 642,587.062 643.24,586.451 644.48,585.84 645.72,585.229 646.96,584.617 648.2,584.006 649.44,583.395 650.68,582.784 651.92,582.172 653.16,581.561 654.4,580.95 655.64,580.339 656.88,579.728 658.12,579.116 659.36,578.505 660.6,577.894 661.84,577.282 663.08,576.671 664.32,576.06 665.56,575.449 666.8,574.838 668.04,574.226 669.28,573.615 670.52,573.004 671.76,572.393 673,571.781 674.24,571.17 675.48,570.559 676.72,569.948 677.96,569.336 679.2,568.725 680.44,568.114 681.68,567.503 682.92,566.891 684.16,566.28 685.4,565.669 686.64,565.057 687.88,564.446 689.12,563.835 690.36,563.224 691.6,562.612 692.84,562.001 694.08,561.39 695.32,560.779 696.56,560.167 697.8,559.556 699.04,558.945 700.28,558.334 701.52,557.723 702.76,557.111 704,556.5 705.24,555.889 706.48,555.278 707.72,554.666 708.96,554.055 710.2,553.444 711.44,552.833 712.68,552.221 713.92,551.61 715.16,550.999 716.4,550.388 717.64,549.776 718.88,549.165 720.12,548.554 721.36,547.943 722.6,547.331 723.84,546.72 725.08,546.109 726.32,545.497 727.56,544.886 728.8,544.275 730.04,543.664 731.28,543.052 732.52,542.441 733.76,541.83 735,541.219 736.24,540.608 737.48,539.996 738.72,539.385 739.96,538.774 741.2,538.162 742.44,537.551 743.68,536.94 744.92,536.329 746.16,535.718 747.4,535.106 748.64,534.495 749.88,533.884 751.12,533.273 752.36,532.661 753.6,532.05 754.84,531.439 756.08,530.828 757.32,530.216 758.56,529.605 759.8,528.994 761.04,528.383 762.28,527.771 763.52,527.16 764.76,526.549 766,525.938 767.24,525.326 768.48,524.715 769.72,524.104 770.96,523.492 772.2,522.881 773.44,522.27 774.68,521.659 775.92,521.047 777.16,520.436 778.4,519.825 779.64,519.214 780.88,518.603 782.12,517.991 783.36,517.38 784.6,516.769 785.84,516.157 787.08,515.546 788.32,514.935 789.56,514.324 790.8,513.713 792.04,513.101 793.28,512.49 794.52,511.879 795.76,511.268 797,510.656 798.24,510.045 799.48,509.434 800.72,508.823 801.96,508.211 803.2,507.6 804.44,506.989 805.68,506.378 806.92,505.766 808.16,505.155 809.4,504.544 810.64,503.932 811.88,503.321 813.12,502.71 814.36,502.099 815.6,501.487 816.84,500.876 818.08,500.265 819.32,499.654 820.56,499.043 821.8,498.431 823.04,497.82 824.28,497.209 825.52,496.598 826.76,495.986 828,495.375 829.24,494.764 830.48,494.153 831.72,493.541 832.96,492.93 834.2,492.319 835.44,491.707 836.68,491.096 837.92,490.485 839.16,489.874 840.4,489.263 841.64,488.651 842.88,488.04 844.12,487.429 845.36,486.818 846.6,486.206 847.84,485.595 849.08,484.984 850.32,484.372 851.56,483.761 852.8,483.15 854.04,482.539 855.28,481.927 856.52,481.316 857.76,480.705 859,480.094 860.24,479.482 861.48,478.871 862.72,478.26 863.96,477.649 865.2,477.038 866.44,476.426 867.68,475.815 868.92,475.204 870.16,474.592 871.4,473.981 872.64,473.37 873.88,472.759 875.12,472.148 876.36,471.536 877.6,470.925 878.84,470.314 880.08,469.702 881.32,469.091 882.56,468.48 883.8,467.869 885.04,467.258 886.28,466.646 887.52,466.035 888.76,465.424 890,464.812 891.24,464.201 892.48,463.59 893.72,462.979 894.96,462.367 896.2,461.756 897.44,461.145 898.68,460.534 899.92,459.923 901.16,459.311 902.4,458.7 903.64,458.089 904.88,457.477 906.12,456.866 907.36,456.255 908.6,455.644 909.84,455.033 911.08,454.421 912.32,453.81 913.56,453.199 914.8,452.587 916.04,451.976 917.28,451.365 918.52,450.754 919.76,450.143 921,449.531 922.24,448.92 923.48,448.309 924.72,447.698 925.96,447.086 927.2,446.475 928.44,445.864 929.68,445.253 930.92,444.641 932.16,444.03 933.4,443.419 934.64,442.807 935.88,442.196 937.12,441.585 938.36,440.974 939.6,440.362 940.84,439.751 942.08,439.14 943.32,438.529 944.56,437.918 945.8,437.306 947.04,436.695 948.28,436.084 949.52,435.472 950.76,434.861 952,434.25 953.24,433.639 954.48,433.027 955.72,432.416 956.96,431.805 958.2,431.194 959.44,430.582 960.68,429.971 961.92,429.36 963.16,428.749 964.4,428.138 965.64,427.526 966.88,426.915 968.12,426.304 969.36,425.693 970.6,425.081 971.84,424.47 973.08,423.859 974.32,423.247 975.56,422.636 976.8,422.025 978.04,421.414 979.28,420.802 980.52,420.191 981.76,419.58 983,418.969 984.24,418.357 985.48,417.746 986.72,417.135 987.96,416.524 989.2,415.913 990.44,415.301 991.68,414.69 992.92,414.079 994.16,413.467 995.4,412.856 996.64,412.245 997.88,411.634 999.12,411.022 1000.36,410.411 1001.6,409.8 1002.84,409.189 1004.08,408.577 1005.32,407.966 1006.56,407.355 1007.8,406.744 1009.04,406.133 1010.28,405.521 1011.52,404.91 1012.76,404.299 1014,403.688 1015.24,403.076 1016.48,402.465 1017.72,401.854 1018.96,401.242 1020.2,400.631 1021.44,400.02 1022.68,399.409 1023.92,398.797 1025.16,398.186 1026.4,397.575 1027.64,396.964 1028.88,396.352 1030.12,395.741 1031.36,395.13 1032.6,394.519 1033.84,393.908 1035.08,393.296 1036.32,392.685 1037.56,392.074 1038.8,391.462 1040.04,390.851 1041.28,390.24 1042.52,389.629 1043.76,389.017 1045,388.406 1046.24,387.795 1047.48,387.184 1048.72,386.573 1049.96,385.961 1051.2,385.35 1052.44,384.739 1053.68,384.128 1054.92,383.516 1056.16,382.905 1057.4,382.294 1058.64,381.682 1059.88,381.071 1061.12,380.46 1062.36,379.849 1063.6,379.237 1064.84,378.626 1066.08,378.015 1067.32,377.404 1068.56,376.792 1069.8,376.181 1071.04,375.57 1072.28,374.959 1073.52,374.347 1074.76,373.736 1076,373.125 1077.24,372.514 1078.48,371.902 1079.72,371.291 1080.96,370.68 1082.2,370.069 1083.44,369.458 1084.68,368.846 1085.92,368.235 1087.16,367.624 1088.4,367.013 1089.64,366.401 1090.88,365.79 1092.12,365.179 1093.36,364.568 1094.6,363.956 1095.84,363.345 1097.08,362.734 1098.32,362.122 1099.56,361.511 1100.8,360.9 1102.04,360.289 1103.28,359.677 1104.52,359.066 1105.76,358.455 1107,357.844 1108.24,357.233 1109.48,356.621 1110.72,356.01 1111.96,355.399 1113.2,354.787 1114.44,354.176 1115.68,353.565 1116.92,352.954 1118.16,352.342 1119.4,351.731 1120.64,351.12 1121.88,350.509 1123.12,349.898 1124.36,349.286 1125.6,348.675 1126.84,348.064 1128.08,347.452 1129.32,346.841 1130.56,346.23 1131.8,345.619 1133.04,345.007 1134.28,344.396 1135.52,343.785 1136.76,343.174 1138,342.562 1139.24,341.951 1140.48,341.34 1141.72,340.729 1142.96,340.117 1144.2,339.506 1145.44,338.895 1146.68,338.284 1147.92,337.672 1149.16,337.061 1150.4,336.45 1151.64,335.839 1152.88,335.228 1154.12,334.616 1155.36,334.005 1156.6,333.394 1157.84,332.782 1159.08,332.171 1160.32,331.56 1161.56,330.949 1162.8,330.338 1164.04,329.726 1165.28,329.115 1166.52,328.504 1167.76,327.893 1169,327.281 1170.24,326.67 1171.48,326.059 1172.72,325.447 1173.96,324.836 1175.2,324.225 1176.44,323.614 1177.68,323.002 1178.92,322.391 1180.16,321.78 1181.4,321.169 1182.64,320.557 1183.88,319.946 1185.12,319.335 1186.36,318.724 1187.6,318.112 1188.84,317.501 1190.08,316.89 1191.32,316.279 1192.56,315.667 1193.8,315.056 1195.04,314.445 1196.28,313.834 1197.52,313.222 1198.76,312.611 1200,312 1201.24,311.389 1202.48,310.777 1203.72,310.166 1204.96,309.555 1206.2,308.944 1207.44,308.333 1208.68,307.721 1209.92,307.11 1211.16,306.499 1212.4,305.888 1213.64,305.276 1214.88,304.665 1216.12,304.054 1217.36,303.443 1218.6,302.831 1219.84,302.22 1221.08,301.609 1222.32,300.997 1223.56,300.386 1224.8,299.775 1226.04,299.164 1227.28,298.552 1228.52,297.941 1229.76,297.33 1231,296.719 1232.24,296.107 1233.48,295.496 1234.72,294.885 1235.96,294.274 1237.2,293.662 1238.44,293.051 1239.68,292.44 1240.92,291.829 1242.16,291.217 1243.4,290.606 1244.64,289.995 1245.88,289.384 1247.12,288.772 1248.36,288.161 1249.6,287.55 1250.84,286.939 1252.08,286.328 1253.32,285.716 1254.56,285.105 1255.8,284.494 1257.04,283.883 1258.28,283.271 1259.52,282.66 1260.76,282.049 1262,281.438 1263.24,280.826 1264.48,280.215 1265.72,279.604 1266.96,278.992 1268.2,278.381 1269.44,277.77 1270.68,277.159 1271.92,276.547 1273.16,275.936 1274.4,275.325 1275.64,274.714 1276.88,274.102 1278.12,273.491 1279.36,272.88 1280.6,272.269 1281.84,271.657 1283.08,271.046 1284.32,270.435 1285.56,269.824 1286.8,269.213 1288.04,268.601 1289.28,267.99 1290.52,267.379 1291.76,266.767 1293,266.156 1294.24,265.545 1295.48,264.934 1296.72,264.323 1297.96,263.711 1299.2,263.1 1300.44,262.489 1301.68,261.878 1302.92,261.266 1304.16,260.655 1305.4,260.044 1306.64,259.432 1307.88,258.821 1309.12,258.21 1310.36,257.599 1311.6,256.988 1312.84,256.376 1314.08,255.765 1315.32,255.154 1316.56,254.542 1317.8,253.931 1319.04,253.32 1320.28,252.709 1321.52,252.097 1322.76,251.486 1324,250.875 1325.24,250.264 1326.48,249.652 1327.72,249.041 1328.96,248.43 1330.2,247.819 1331.44,247.208 1332.68,246.596 1333.92,245.985 1335.16,245.374 1336.4,244.762 1337.64,244.151 1338.88,243.54 1340.12,242.929 1341.36,242.318 1342.6,241.706 1343.84,241.095 1345.08,240.484 1346.32,239.872 1347.56,239.261 1348.8,238.65 1350.04,238.039 1351.28,237.427 1352.52,236.816 1353.76,236.205 1355,235.594 1356.24,234.983 1357.48,234.371 1358.72,233.76 1359.96,233.149 1361.2,232.537 1362.44,231.926 1363.68,231.315 1364.92,230.704 1366.16,230.092 1367.4,229.481 1368.64,228.87 1369.88,228.259 1371.12,227.647 1372.36,227.036 1373.6,226.425 1374.84,225.814 1376.08,225.203 1377.32,224.591 1378.56,223.98 1379.8,223.369 1381.04,222.758 1382.28,222.146 1383.52,221.535 1384.76,220.924 1386,220.312 1387.24,219.701 1388.48,219.09 1389.72,218.479 1390.96,217.867 1392.2,217.256 1393.44,216.645 1394.68,216.034 1395.92,215.422 1397.16,214.811 1398.4,214.2 1399.64,213.589 1400.88,212.978 1402.12,212.366 1403.36,211.755 1404.6,211.144 1405.84,210.533 1407.08,209.921 1408.32,209.31 1409.56,208.699 1410.8,208.087 1412.04,207.476 1413.28,206.865 1414.52,206.254 1415.76,205.642 1417,205.031 1418.24,204.42 1419.48,203.809 1420.72,203.198 1421.96,202.586 1423.2,201.975 1424.44,201.364 1425.68,200.753 1426.92,200.141 1428.16,199.53 1429.4,198.919 1430.64,198.307 1431.88,197.696 1433.12,197.085 1434.36,196.474 1435.6,195.862 1436.84,195.251 1438.08,194.64 1439.32,194.029 1440.56,193.417 1441.8,192.806 1443.04,192.195 1444.28,191.584 1445.52,190.973 1446.76,190.361 1448,189.75"/>
<text fill="#000000" x="828" y="57.5" font-size="11" text-anchor="middle" dy="0" font-family="Helvetica" font-weight="bold">Input data</text>
</g>
<clipPath id="cp001600900">
  <polygon points="0,900 1600,900 1600,0 0,0"/>
</clipPath>
<g clip-path="url(#cp001600900)">
<polygon fill="#ffffff" shape-rendering="crispEdges" points="1374.95,117.197 1445.75,117.197 1374.95,70.1742"/>
<polygon fill="#ffffff" shape-rendering="crispEdges" points="1445.75,117.197 1445.75,70.1742 1374.95,70.1742"/>
<polyline fill="none" stroke="#262626" stroke-width="0.5" stroke-linecap="butt" stroke-linejoin="miter" stroke-dasharray="16,0" points="1374.95,117.197 1445.75,117.197"/>
<polyline fill="none" stroke="#262626" stroke-width="0.5" stroke-linecap="butt" stroke-linejoin="miter" stroke-dasharray="16,0" points="1374.95,70.1742 1445.75,70.1742"/>
<polyline fill="none" stroke="#262626" stroke-width="0.5" stroke-linecap="butt" stroke-linejoin="miter" stroke-dasharray="16,0" points="1374.95,117.197 1374.95,70.1742"/>
<polyline fill="none" stroke="#262626" stroke-width="0.5" stroke-linecap="butt" stroke-linejoin="miter" stroke-dasharray="16,0" points="1445.75,117.197 1445.75,70.1742"/>
<text fill="#000000" x="1396.34" y="78.0112" font-size="10" text-anchor="start" dy="5" font-family="Helvetica">Signal A</text>
<text fill="#000000" x="1396.34" y="93.6853" font-size="10" text-anchor="start" dy="5" font-family="Helvetica">Signal B</text>
<text fill="#000000" x="1396.34" y="109.359" font-size="10" text-anchor="start" dy="5" font-family="Helvetica">Response   </text>
<polyline fill="none" stroke="#0071bc" stroke-width="0.5" stroke-linecap="butt" stroke-linejoin="miter" points="1377.2,78.0112 1394.09,78.0112"/>
<polyline fill="none" stroke="#d85218" stroke-width="0.5" stroke-linecap="butt" stroke-linejoin="miter" points="1377.2,93.6853 1394.09,93.6853"/>
<polyline fill="none" stroke="#ecb01f" stroke-width="0.5" stroke-linecap="butt" stroke-linejoin="miter" points="1377.2,109.359 1394.09,109.359"/>
</g>
</g>
</svg>
